<svg xmlns="http://www.w3.org/2000/svg" version="1.1" xmlns:xlink="http://www.w3.org/1999/xlink" xmlns:svgjs="http://svgjs.dev/svgjs" width="1440" height="700" preserveAspectRatio="none" viewBox="0 0 1440 700"><g mask="url(&quot;#SvgjsMask1010&quot;)" fill="none"><rect width="1440" height="700" x="0" y="0" fill="#0e2a47"></rect><path d="M-66.14 537.85L-66.14 537.85" stroke="rgba(0, 0, 0, 1)" stroke-width="1.5"></path><path d="M-66.14 537.85L42.47 505.27" stroke="rgba(0, 0, 0, 1)" stroke-width="1.5"></path><path d="M-66.14 537.85L-110.58 672.27" stroke="rgba(0, 0, 0, 1)" stroke-width="1.5"></path><path d="M-66.14 537.85L68.84 691.89" stroke="rgba(0, 0, 0, 1)" stroke-width="1.5"></path><path d="M-66.14 537.85L218.15 557.88" stroke="rgba(0, 0, 0, 1)" stroke-width="1.5"></path><path d="M-66.14 537.85L195.72 670.57" stroke="rgba(0, 0, 0, 1)" stroke-width="1.5"></path><path d="M-66.14 537.85L-100.47 857.99" stroke="rgba(0, 0, 0, 1)" stroke-width="1.5"></path><path d="M-110.58 672.27L-110.58 672.27" stroke="rgba(0, 0, 0, 1)" stroke-width="1.5"></path><path d="M-110.58 672.27L68.84 691.89" stroke="rgba(0, 0, 0, 1)" stroke-width="1.5"></path><path d="M-110.58 672.27L-100.47 857.99" stroke="rgba(0, 0, 0, 1)" stroke-width="1.5"></path><path d="M-110.58 672.27L42.47 505.27" stroke="rgba(0, 0, 0, 1)" stroke-width="1.5"></path><path d="M-110.58 672.27L79.3 859.33" stroke="rgba(0, 0, 0, 1)" stroke-width="1.5"></path><path d="M-100.47 857.99L-100.47 857.99" stroke="rgba(0, 0, 0, 1)" stroke-width="1.5"></path><path d="M-100.47 857.99L79.3 859.33" stroke="rgba(0, 0, 0, 1)" stroke-width="1.5"></path><path d="M-100.47 857.99L68.84 691.89" stroke="rgba(0, 0, 0, 1)" stroke-width="1.5"></path><path d="M42.47 505.27L42.47 505.27" stroke="rgba(0, 0, 0, 1)" stroke-width="1.5"></path><path d="M42.47 505.27L218.15 557.88" stroke="rgba(0, 0, 0, 1)" stroke-width="1.5"></path><path d="M42.47 505.27L68.84 691.89" stroke="rgba(0, 0, 0, 1)" stroke-width="1.5"></path><path d="M68.84 691.89L68.84 691.89" stroke="rgba(0, 0, 0, 1)" stroke-width="1.5"></path><path d="M68.84 691.89L195.72 670.57" stroke="rgba(0, 0, 0, 1)" stroke-width="1.5"></path><path d="M68.84 691.89L79.3 859.33" stroke="rgba(0, 0, 0, 1)" stroke-width="1.5"></path><path d="M79.3 859.33L79.3 859.33" stroke="rgba(0, 0, 0, 1)" stroke-width="1.5"></path><path d="M79.3 859.33L201.9 821.01" stroke="rgba(0, 0, 0, 1)" stroke-width="1.5"></path><path d="M79.3 859.33L195.72 670.57" stroke="rgba(0, 0, 0, 1)" stroke-width="1.5"></path><path d="M79.3 859.33L368.51 824.02" stroke="rgba(0, 0, 0, 1)" stroke-width="1.5"></path><path d="M218.15 557.88L218.15 557.88" stroke="rgba(0, 0, 0, 1)" stroke-width="1.5"></path><path d="M218.15 557.88L195.72 670.57" stroke="rgba(0, 0, 0, 1)" stroke-width="1.5"></path><path d="M218.15 557.88L344.14 406.79" stroke="rgba(0, 0, 0, 1)" stroke-width="1.5"></path><path d="M218.15 557.88L68.84 691.89" stroke="rgba(0, 0, 0, 1)" stroke-width="1.5"></path><path d="M218.15 557.88L400.01 648.52" stroke="rgba(0, 0, 0, 1)" stroke-width="1.5"></path><path d="M218.15 557.88L201.9 821.01" stroke="rgba(0, 0, 0, 1)" stroke-width="1.5"></path><path d="M195.72 670.57L195.72 670.57" stroke="rgba(0, 0, 0, 1)" stroke-width="1.5"></path><path d="M195.72 670.57L201.9 821.01" stroke="rgba(0, 0, 0, 1)" stroke-width="1.5"></path><path d="M195.72 670.57L400.01 648.52" stroke="rgba(0, 0, 0, 1)" stroke-width="1.5"></path><path d="M195.72 670.57L42.47 505.27" stroke="rgba(0, 0, 0, 1)" stroke-width="1.5"></path><path d="M201.9 821.01L201.9 821.01" stroke="rgba(0, 0, 0, 1)" stroke-width="1.5"></path><path d="M201.9 821.01L368.51 824.02" stroke="rgba(0, 0, 0, 1)" stroke-width="1.5"></path><path d="M201.9 821.01L68.84 691.89" stroke="rgba(0, 0, 0, 1)" stroke-width="1.5"></path><path d="M201.9 821.01L400.01 648.52" stroke="rgba(0, 0, 0, 1)" stroke-width="1.5"></path><path d="M344.14 406.79L344.14 406.79" stroke="rgba(0, 0, 0, 1)" stroke-width="1.5"></path><path d="M344.14 406.79L523.36 345.45" stroke="rgba(0, 0, 0, 1)" stroke-width="1.5"></path><path d="M344.14 406.79L546.22 543.85" stroke="rgba(0, 0, 0, 1)" stroke-width="1.5"></path><path d="M344.14 406.79L400.01 648.52" stroke="rgba(0, 0, 0, 1)" stroke-width="1.5"></path><path d="M344.14 406.79L195.72 670.57" stroke="rgba(0, 0, 0, 1)" stroke-width="1.5"></path><path d="M344.14 406.79L42.47 505.27" stroke="rgba(0, 0, 0, 1)" stroke-width="1.5"></path><path d="M400.01 648.52L400.01 648.52" stroke="rgba(0, 0, 0, 1)" stroke-width="1.5"></path><path d="M400.01 648.52L368.51 824.02" stroke="rgba(0, 0, 0, 1)" stroke-width="1.5"></path><path d="M400.01 648.52L546.22 543.85" stroke="rgba(0, 0, 0, 1)" stroke-width="1.5"></path><path d="M368.51 824.02L368.51 824.02" stroke="rgba(0, 0, 0, 1)" stroke-width="1.5"></path><path d="M368.51 824.02L526.36 833.53" stroke="rgba(0, 0, 0, 1)" stroke-width="1.5"></path><path d="M523.36 345.45L523.36 345.45" stroke="rgba(0, 0, 0, 1)" stroke-width="1.5"></path><path d="M523.36 345.45L663.48 376.91" stroke="rgba(0, 0, 0, 1)" stroke-width="1.5"></path><path d="M523.36 345.45L546.22 543.85" stroke="rgba(0, 0, 0, 1)" stroke-width="1.5"></path><path d="M523.36 345.45L699.12 535.85" stroke="rgba(0, 0, 0, 1)" stroke-width="1.5"></path><path d="M546.22 543.85L546.22 543.85" stroke="rgba(0, 0, 0, 1)" stroke-width="1.5"></path><path d="M546.22 543.85L699.12 535.85" stroke="rgba(0, 0, 0, 1)" stroke-width="1.5"></path><path d="M546.22 543.85L680.03 639.53" stroke="rgba(0, 0, 0, 1)" stroke-width="1.5"></path><path d="M526.36 833.53L526.36 833.53" stroke="rgba(0, 0, 0, 1)" stroke-width="1.5"></path><path d="M526.36 833.53L649.9 844.02" stroke="rgba(0, 0, 0, 1)" stroke-width="1.5"></path><path d="M526.36 833.53L400.01 648.52" stroke="rgba(0, 0, 0, 1)" stroke-width="1.5"></path><path d="M526.36 833.53L680.03 639.53" stroke="rgba(0, 0, 0, 1)" stroke-width="1.5"></path><path d="M526.36 833.53L546.22 543.85" stroke="rgba(0, 0, 0, 1)" stroke-width="1.5"></path><path d="M526.36 833.53L201.9 821.01" stroke="rgba(0, 0, 0, 1)" stroke-width="1.5"></path><path d="M663.48 376.91L663.48 376.91" stroke="rgba(0, 0, 0, 1)" stroke-width="1.5"></path><path d="M663.48 376.91L799.03 343.58" stroke="rgba(0, 0, 0, 1)" stroke-width="1.5"></path><path d="M663.48 376.91L699.12 535.85" stroke="rgba(0, 0, 0, 1)" stroke-width="1.5"></path><path d="M699.12 535.85L699.12 535.85" stroke="rgba(0, 0, 0, 1)" stroke-width="1.5"></path><path d="M699.12 535.85L680.03 639.53" stroke="rgba(0, 0, 0, 1)" stroke-width="1.5"></path><path d="M699.12 535.85L854.64 543.25" stroke="rgba(0, 0, 0, 1)" stroke-width="1.5"></path><path d="M680.03 639.53L680.03 639.53" stroke="rgba(0, 0, 0, 1)" stroke-width="1.5"></path><path d="M680.03 639.53L842.85 649.74" stroke="rgba(0, 0, 0, 1)" stroke-width="1.5"></path><path d="M649.9 844.02L649.9 844.02" stroke="rgba(0, 0, 0, 1)" stroke-width="1.5"></path><path d="M649.9 844.02L680.03 639.53" stroke="rgba(0, 0, 0, 1)" stroke-width="1.5"></path><path d="M649.9 844.02L842.85 649.74" stroke="rgba(0, 0, 0, 1)" stroke-width="1.5"></path><path d="M816.77 201.29L816.77 201.29" stroke="rgba(0, 0, 0, 1)" stroke-width="1.5"></path><path d="M816.77 201.29L947.31 224.24" stroke="rgba(0, 0, 0, 1)" stroke-width="1.5"></path><path d="M816.77 201.29L799.03 343.58" stroke="rgba(0, 0, 0, 1)" stroke-width="1.5"></path><path d="M816.77 201.29L985.54 72.56" stroke="rgba(0, 0, 0, 1)" stroke-width="1.5"></path><path d="M816.77 201.29L663.48 376.91" stroke="rgba(0, 0, 0, 1)" stroke-width="1.5"></path><path d="M799.03 343.58L799.03 343.58" stroke="rgba(0, 0, 0, 1)" stroke-width="1.5"></path><path d="M799.03 343.58L947.31 224.24" stroke="rgba(0, 0, 0, 1)" stroke-width="1.5"></path><path d="M799.03 343.58L988.98 386.01" stroke="rgba(0, 0, 0, 1)" stroke-width="1.5"></path><path d="M854.64 543.25L854.64 543.25" stroke="rgba(0, 0, 0, 1)" stroke-width="1.5"></path><path d="M854.64 543.25L842.85 649.74" stroke="rgba(0, 0, 0, 1)" stroke-width="1.5"></path><path d="M842.85 649.74L842.85 649.74" stroke="rgba(0, 0, 0, 1)" stroke-width="1.5"></path><path d="M842.85 649.74L1007.47 683.86" stroke="rgba(0, 0, 0, 1)" stroke-width="1.5"></path><path d="M842.85 649.74L699.12 535.85" stroke="rgba(0, 0, 0, 1)" stroke-width="1.5"></path><path d="M842.85 649.74L991.21 807.32" stroke="rgba(0, 0, 0, 1)" stroke-width="1.5"></path><path d="M842.85 649.74L1004.42 492.08" stroke="rgba(0, 0, 0, 1)" stroke-width="1.5"></path><path d="M985.54 72.56L985.54 72.56" stroke="rgba(0, 0, 0, 1)" stroke-width="1.5"></path><path d="M985.54 72.56L947.31 224.24" stroke="rgba(0, 0, 0, 1)" stroke-width="1.5"></path><path d="M985.54 72.56L1151.39 234.29" stroke="rgba(0, 0, 0, 1)" stroke-width="1.5"></path><path d="M947.31 224.24L947.31 224.24" stroke="rgba(0, 0, 0, 1)" stroke-width="1.5"></path><path d="M947.31 224.24L988.98 386.01" stroke="rgba(0, 0, 0, 1)" stroke-width="1.5"></path><path d="M988.98 386.01L988.98 386.01" stroke="rgba(0, 0, 0, 1)" stroke-width="1.5"></path><path d="M988.98 386.01L1004.42 492.08" stroke="rgba(0, 0, 0, 1)" stroke-width="1.5"></path><path d="M988.98 386.01L1110.97 337.96" stroke="rgba(0, 0, 0, 1)" stroke-width="1.5"></path><path d="M1004.42 492.08L1004.42 492.08" stroke="rgba(0, 0, 0, 1)" stroke-width="1.5"></path><path d="M1004.42 492.08L1100.31 544.31" stroke="rgba(0, 0, 0, 1)" stroke-width="1.5"></path><path d="M1004.42 492.08L854.64 543.25" stroke="rgba(0, 0, 0, 1)" stroke-width="1.5"></path><path d="M1004.42 492.08L1110.97 337.96" stroke="rgba(0, 0, 0, 1)" stroke-width="1.5"></path><path d="M1007.47 683.86L1007.47 683.86" stroke="rgba(0, 0, 0, 1)" stroke-width="1.5"></path><path d="M1007.47 683.86L991.21 807.32" stroke="rgba(0, 0, 0, 1)" stroke-width="1.5"></path><path d="M1007.47 683.86L1159.03 699.88" stroke="rgba(0, 0, 0, 1)" stroke-width="1.5"></path><path d="M1007.47 683.86L1100.31 544.31" stroke="rgba(0, 0, 0, 1)" stroke-width="1.5"></path><path d="M1007.47 683.86L1004.42 492.08" stroke="rgba(0, 0, 0, 1)" stroke-width="1.5"></path><path d="M991.21 807.32L991.21 807.32" stroke="rgba(0, 0, 0, 1)" stroke-width="1.5"></path><path d="M991.21 807.32L1131.63 836.47" stroke="rgba(0, 0, 0, 1)" stroke-width="1.5"></path><path d="M991.21 807.32L1159.03 699.88" stroke="rgba(0, 0, 0, 1)" stroke-width="1.5"></path><path d="M991.21 807.32L1100.31 544.31" stroke="rgba(0, 0, 0, 1)" stroke-width="1.5"></path><path d="M1151.39 234.29L1151.39 234.29" stroke="rgba(0, 0, 0, 1)" stroke-width="1.5"></path><path d="M1151.39 234.29L1110.97 337.96" stroke="rgba(0, 0, 0, 1)" stroke-width="1.5"></path><path d="M1151.39 234.29L1268.35 258.31" stroke="rgba(0, 0, 0, 1)" stroke-width="1.5"></path><path d="M1151.39 234.29L947.31 224.24" stroke="rgba(0, 0, 0, 1)" stroke-width="1.5"></path><path d="M1110.97 337.96L1110.97 337.96" stroke="rgba(0, 0, 0, 1)" stroke-width="1.5"></path><path d="M1110.97 337.96L1265.08 407.39" stroke="rgba(0, 0, 0, 1)" stroke-width="1.5"></path><path d="M1110.97 337.96L1268.35 258.31" stroke="rgba(0, 0, 0, 1)" stroke-width="1.5"></path><path d="M1100.31 544.31L1100.31 544.31" stroke="rgba(0, 0, 0, 1)" stroke-width="1.5"></path><path d="M1100.31 544.31L1159.03 699.88" stroke="rgba(0, 0, 0, 1)" stroke-width="1.5"></path><path d="M1100.31 544.31L988.98 386.01" stroke="rgba(0, 0, 0, 1)" stroke-width="1.5"></path><path d="M1100.31 544.31L1110.97 337.96" stroke="rgba(0, 0, 0, 1)" stroke-width="1.5"></path><path d="M1100.31 544.31L1265.08 407.39" stroke="rgba(0, 0, 0, 1)" stroke-width="1.5"></path><path d="M1159.03 699.88L1159.03 699.88" stroke="rgba(0, 0, 0, 1)" stroke-width="1.5"></path><path d="M1159.03 699.88L1131.63 836.47" stroke="rgba(0, 0, 0, 1)" stroke-width="1.5"></path><path d="M1131.63 836.47L1131.63 836.47" stroke="rgba(0, 0, 0, 1)" stroke-width="1.5"></path><path d="M1131.63 836.47L1007.47 683.86" stroke="rgba(0, 0, 0, 1)" stroke-width="1.5"></path><path d="M1131.63 836.47L1307.94 648.53" stroke="rgba(0, 0, 0, 1)" stroke-width="1.5"></path><path d="M1131.63 836.47L1389.15 810.71" stroke="rgba(0, 0, 0, 1)" stroke-width="1.5"></path><path d="M1131.63 836.47L1100.31 544.31" stroke="rgba(0, 0, 0, 1)" stroke-width="1.5"></path><path d="M1275.85 -82.36L1275.85 -82.36" stroke="rgba(0, 0, 0, 1)" stroke-width="1.5"></path><path d="M1275.85 -82.36L1431.8 -110.76" stroke="rgba(0, 0, 0, 1)" stroke-width="1.5"></path><path d="M1275.85 -82.36L1310.99 88.21" stroke="rgba(0, 0, 0, 1)" stroke-width="1.5"></path><path d="M1275.85 -82.36L1429.25 110.63" stroke="rgba(0, 0, 0, 1)" stroke-width="1.5"></path><path d="M1275.85 -82.36L985.54 72.56" stroke="rgba(0, 0, 0, 1)" stroke-width="1.5"></path><path d="M1310.99 88.21L1310.99 88.21" stroke="rgba(0, 0, 0, 1)" stroke-width="1.5"></path><path d="M1310.99 88.21L1429.25 110.63" stroke="rgba(0, 0, 0, 1)" stroke-width="1.5"></path><path d="M1310.99 88.21L1268.35 258.31" stroke="rgba(0, 0, 0, 1)" stroke-width="1.5"></path><path d="M1268.35 258.31L1268.35 258.31" stroke="rgba(0, 0, 0, 1)" stroke-width="1.5"></path><path d="M1268.35 258.31L1265.08 407.39" stroke="rgba(0, 0, 0, 1)" stroke-width="1.5"></path><path d="M1268.35 258.31L1421.83 251.75" stroke="rgba(0, 0, 0, 1)" stroke-width="1.5"></path><path d="M1268.35 258.31L1453.6 365.64" stroke="rgba(0, 0, 0, 1)" stroke-width="1.5"></path><path d="M1265.08 407.39L1265.08 407.39" stroke="rgba(0, 0, 0, 1)" stroke-width="1.5"></path><path d="M1265.08 407.39L1309.45 493.96" stroke="rgba(0, 0, 0, 1)" stroke-width="1.5"></path><path d="M1265.08 407.39L1411.66 524.06" stroke="rgba(0, 0, 0, 1)" stroke-width="1.5"></path><path d="M1309.45 493.96L1309.45 493.96" stroke="rgba(0, 0, 0, 1)" stroke-width="1.5"></path><path d="M1309.45 493.96L1411.66 524.06" stroke="rgba(0, 0, 0, 1)" stroke-width="1.5"></path><path d="M1307.94 648.53L1307.94 648.53" stroke="rgba(0, 0, 0, 1)" stroke-width="1.5"></path><path d="M1307.94 648.53L1417.38 638.96" stroke="rgba(0, 0, 0, 1)" stroke-width="1.5"></path><path d="M1307.94 648.53L1309.45 493.96" stroke="rgba(0, 0, 0, 1)" stroke-width="1.5"></path><path d="M1307.94 648.53L1159.03 699.88" stroke="rgba(0, 0, 0, 1)" stroke-width="1.5"></path><path d="M1307.94 648.53L1411.66 524.06" stroke="rgba(0, 0, 0, 1)" stroke-width="1.5"></path><path d="M1307.94 648.53L1389.15 810.71" stroke="rgba(0, 0, 0, 1)" stroke-width="1.5"></path><path d="M1431.8 -110.76L1431.8 -110.76" stroke="rgba(0, 0, 0, 1)" stroke-width="1.5"></path><path d="M1431.8 -110.76L1429.25 110.63" stroke="rgba(0, 0, 0, 1)" stroke-width="1.5"></path><path d="M1431.8 -110.76L1310.99 88.21" stroke="rgba(0, 0, 0, 1)" stroke-width="1.5"></path><path d="M1431.8 -110.76L1588.9 64.41" stroke="rgba(0, 0, 0, 1)" stroke-width="1.5"></path><path d="M1431.8 -110.76L1421.83 251.75" stroke="rgba(0, 0, 0, 1)" stroke-width="1.5"></path><path d="M1431.8 -110.76L1603.06 210.61" stroke="rgba(0, 0, 0, 1)" stroke-width="1.5"></path><path d="M1429.25 110.63L1429.25 110.63" stroke="rgba(0, 0, 0, 1)" stroke-width="1.5"></path><path d="M1429.25 110.63L1421.83 251.75" stroke="rgba(0, 0, 0, 1)" stroke-width="1.5"></path><path d="M1429.25 110.63L1588.9 64.41" stroke="rgba(0, 0, 0, 1)" stroke-width="1.5"></path><path d="M1429.25 110.63L1603.06 210.61" stroke="rgba(0, 0, 0, 1)" stroke-width="1.5"></path><path d="M1429.25 110.63L1268.35 258.31" stroke="rgba(0, 0, 0, 1)" stroke-width="1.5"></path><path d="M1421.83 251.75L1421.83 251.75" stroke="rgba(0, 0, 0, 1)" stroke-width="1.5"></path><path d="M1421.83 251.75L1453.6 365.64" stroke="rgba(0, 0, 0, 1)" stroke-width="1.5"></path><path d="M1453.6 365.64L1453.6 365.64" stroke="rgba(0, 0, 0, 1)" stroke-width="1.5"></path><path d="M1453.6 365.64L1578.46 395.77" stroke="rgba(0, 0, 0, 1)" stroke-width="1.5"></path><path d="M1453.6 365.64L1411.66 524.06" stroke="rgba(0, 0, 0, 1)" stroke-width="1.5"></path><path d="M1411.66 524.06L1411.66 524.06" stroke="rgba(0, 0, 0, 1)" stroke-width="1.5"></path><path d="M1411.66 524.06L1417.38 638.96" stroke="rgba(0, 0, 0, 1)" stroke-width="1.5"></path><path d="M1417.38 638.96L1417.38 638.96" stroke="rgba(0, 0, 0, 1)" stroke-width="1.5"></path><path d="M1417.38 638.96L1538.87 649.96" stroke="rgba(0, 0, 0, 1)" stroke-width="1.5"></path><path d="M1417.38 638.96L1389.15 810.71" stroke="rgba(0, 0, 0, 1)" stroke-width="1.5"></path><path d="M1417.38 638.96L1309.45 493.96" stroke="rgba(0, 0, 0, 1)" stroke-width="1.5"></path><path d="M1389.15 810.71L1389.15 810.71" stroke="rgba(0, 0, 0, 1)" stroke-width="1.5"></path><path d="M1389.15 810.71L1572.65 823.59" stroke="rgba(0, 0, 0, 1)" stroke-width="1.5"></path><path d="M1588.9 64.41L1588.9 64.41" stroke="rgba(0, 0, 0, 1)" stroke-width="1.5"></path><path d="M1588.9 64.41L1603.06 210.61" stroke="rgba(0, 0, 0, 1)" stroke-width="1.5"></path><path d="M1588.9 64.41L1421.83 251.75" stroke="rgba(0, 0, 0, 1)" stroke-width="1.5"></path><path d="M1588.9 64.41L1310.99 88.21" stroke="rgba(0, 0, 0, 1)" stroke-width="1.5"></path><path d="M1603.06 210.61L1603.06 210.61" stroke="rgba(0, 0, 0, 1)" stroke-width="1.5"></path><path d="M1603.06 210.61L1421.83 251.75" stroke="rgba(0, 0, 0, 1)" stroke-width="1.5"></path><path d="M1578.46 395.77L1578.46 395.77" stroke="rgba(0, 0, 0, 1)" stroke-width="1.5"></path><path d="M1578.46 395.77L1603.06 210.61" stroke="rgba(0, 0, 0, 1)" stroke-width="1.5"></path><path d="M1578.46 395.77L1411.66 524.06" stroke="rgba(0, 0, 0, 1)" stroke-width="1.5"></path><path d="M1578.46 395.77L1421.83 251.75" stroke="rgba(0, 0, 0, 1)" stroke-width="1.5"></path><path d="M1578.46 395.77L1538.87 649.96" stroke="rgba(0, 0, 0, 1)" stroke-width="1.5"></path><path d="M1578.46 395.77L1309.45 493.96" stroke="rgba(0, 0, 0, 1)" stroke-width="1.5"></path><path d="M1538.87 649.96L1538.87 649.96" stroke="rgba(0, 0, 0, 1)" stroke-width="1.5"></path><path d="M1538.87 649.96L1572.65 823.59" stroke="rgba(0, 0, 0, 1)" stroke-width="1.5"></path><path d="M1538.87 649.96L1411.66 524.06" stroke="rgba(0, 0, 0, 1)" stroke-width="1.5"></path><path d="M1572.65 823.59L1572.65 823.59" stroke="rgba(0, 0, 0, 1)" stroke-width="1.5"></path><path d="M1572.65 823.59L1417.38 638.96" stroke="rgba(0, 0, 0, 1)" stroke-width="1.5"></path><path d="M1572.65 823.59L1307.94 648.53" stroke="rgba(0, 0, 0, 1)" stroke-width="1.5"></path><path d="M1572.65 823.59L1411.66 524.06" stroke="rgba(0, 0, 0, 1)" stroke-width="1.5"></path><path d="M1572.65 823.59L1309.45 493.96" stroke="rgba(0, 0, 0, 1)" stroke-width="1.5"></path><circle r="5" cx="-66.14" cy="537.85" fill="rgba(0, 0, 0, 1)"></circle><circle r="5" cx="-110.58" cy="672.27" fill="rgba(0, 0, 0, 1)"></circle><circle r="5" cx="-100.47" cy="857.99" fill="rgba(0, 0, 0, 1)"></circle><circle r="5" cx="42.47" cy="505.27" fill="rgba(0, 0, 0, 1)"></circle><circle r="5" cx="68.84" cy="691.89" fill="rgba(0, 0, 0, 1)"></circle><circle r="5" cx="79.3" cy="859.33" fill="rgba(0, 0, 0, 1)"></circle><circle r="5" cx="218.15" cy="557.88" fill="rgba(0, 0, 0, 1)"></circle><circle r="5" cx="195.72" cy="670.57" fill="rgba(0, 0, 0, 1)"></circle><circle r="5" cx="201.9" cy="821.01" fill="rgba(0, 0, 0, 1)"></circle><circle r="5" cx="344.14" cy="406.79" fill="rgba(0, 0, 0, 1)"></circle><circle r="5" cx="400.01" cy="648.52" fill="rgba(0, 0, 0, 1)"></circle><circle r="5" cx="368.51" cy="824.02" fill="rgba(0, 0, 0, 1)"></circle><circle r="5" cx="523.36" cy="345.45" fill="rgba(0, 0, 0, 1)"></circle><circle r="5" cx="546.22" cy="543.85" fill="rgba(0, 0, 0, 1)"></circle><circle r="5" cx="526.36" cy="833.53" fill="rgba(0, 0, 0, 1)"></circle><circle r="5" cx="663.48" cy="376.91" fill="rgba(0, 0, 0, 1)"></circle><circle r="5" cx="699.12" cy="535.85" fill="rgba(0, 0, 0, 1)"></circle><circle r="5" cx="680.03" cy="639.53" fill="rgba(0, 0, 0, 1)"></circle><circle r="5" cx="649.9" cy="844.02" fill="rgba(0, 0, 0, 1)"></circle><circle r="5" cx="816.77" cy="201.29" fill="rgba(0, 0, 0, 1)"></circle><circle r="5" cx="799.03" cy="343.58" fill="rgba(0, 0, 0, 1)"></circle><circle r="5" cx="854.64" cy="543.25" fill="rgba(0, 0, 0, 1)"></circle><circle r="5" cx="842.85" cy="649.74" fill="rgba(0, 0, 0, 1)"></circle><circle r="5" cx="985.54" cy="72.56" fill="rgba(0, 0, 0, 1)"></circle><circle r="5" cx="947.31" cy="224.24" fill="rgba(0, 0, 0, 1)"></circle><circle r="5" cx="988.98" cy="386.01" fill="rgba(0, 0, 0, 1)"></circle><circle r="5" cx="1004.42" cy="492.08" fill="rgba(0, 0, 0, 1)"></circle><circle r="5" cx="1007.47" cy="683.86" fill="rgba(0, 0, 0, 1)"></circle><circle r="5" cx="991.21" cy="807.32" fill="rgba(0, 0, 0, 1)"></circle><circle r="5" cx="1151.39" cy="234.29" fill="rgba(0, 0, 0, 1)"></circle><circle r="5" cx="1110.97" cy="337.96" fill="rgba(0, 0, 0, 1)"></circle><circle r="5" cx="1100.31" cy="544.31" fill="rgba(0, 0, 0, 1)"></circle><circle r="5" cx="1159.03" cy="699.88" fill="rgba(0, 0, 0, 1)"></circle><circle r="5" cx="1131.63" cy="836.47" fill="rgba(0, 0, 0, 1)"></circle><circle r="5" cx="1275.85" cy="-82.36" fill="rgba(0, 0, 0, 1)"></circle><circle r="5" cx="1310.99" cy="88.21" fill="rgba(0, 0, 0, 1)"></circle><circle r="5" cx="1268.35" cy="258.31" fill="rgba(0, 0, 0, 1)"></circle><circle r="5" cx="1265.08" cy="407.39" fill="rgba(0, 0, 0, 1)"></circle><circle r="5" cx="1309.45" cy="493.96" fill="rgba(0, 0, 0, 1)"></circle><circle r="5" cx="1307.94" cy="648.53" fill="rgba(0, 0, 0, 1)"></circle><circle r="5" cx="1431.8" cy="-110.76" fill="rgba(0, 0, 0, 1)"></circle><circle r="5" cx="1429.25" cy="110.63" fill="rgba(0, 0, 0, 1)"></circle><circle r="5" cx="1421.83" cy="251.75" fill="rgba(0, 0, 0, 1)"></circle><circle r="5" cx="1453.6" cy="365.64" fill="rgba(0, 0, 0, 1)"></circle><circle r="5" cx="1411.66" cy="524.06" fill="rgba(0, 0, 0, 1)"></circle><circle r="5" cx="1417.38" cy="638.96" fill="rgba(0, 0, 0, 1)"></circle><circle r="5" cx="1389.15" cy="810.71" fill="rgba(0, 0, 0, 1)"></circle><circle r="5" cx="1588.9" cy="64.41" fill="rgba(0, 0, 0, 1)"></circle><circle r="5" cx="1603.06" cy="210.61" fill="rgba(0, 0, 0, 1)"></circle><circle r="5" cx="1578.46" cy="395.77" fill="rgba(0, 0, 0, 1)"></circle><circle r="5" cx="1538.87" cy="649.96" fill="rgba(0, 0, 0, 1)"></circle><circle r="5" cx="1572.65" cy="823.59" fill="rgba(0, 0, 0, 1)"></circle><path d="M-71.07 667.93L-71.07 667.93" stroke="hsl(228.60000000000002, 84.1%, 22.4%)" stroke-width="1.5"></path><path d="M-71.07 667.93L71.55 674.48" stroke="hsl(228.60000000000002, 84.1%, 22.4%)" stroke-width="1.5"></path><path d="M-71.07 667.93L-81.17 851.23" stroke="hsl(228.60000000000002, 84.1%, 22.4%)" stroke-width="1.5"></path><path d="M-71.07 667.93L58.06 818.25" stroke="hsl(228.60000000000002, 84.1%, 22.4%)" stroke-width="1.5"></path><path d="M-71.07 667.93L216.47 792.55" stroke="hsl(228.60000000000002, 84.1%, 22.4%)" stroke-width="1.5"></path><path d="M71.55 674.48L71.55 674.48" stroke="hsl(228.60000000000002, 84.1%, 22.4%)" stroke-width="1.5"></path><path d="M71.55 674.48L58.06 818.25" stroke="hsl(228.60000000000002, 84.1%, 22.4%)" stroke-width="1.5"></path><path d="M71.55 674.48L247.45 653.28" stroke="hsl(228.60000000000002, 84.1%, 22.4%)" stroke-width="1.5"></path><path d="M71.55 674.48L216.47 792.55" stroke="hsl(228.60000000000002, 84.1%, 22.4%)" stroke-width="1.5"></path><path d="M216.47 792.55L216.47 792.55" stroke="hsl(228.60000000000002, 84.1%, 22.4%)" stroke-width="1.5"></path><path d="M216.47 792.55L348.61 815.92" stroke="hsl(228.60000000000002, 84.1%, 22.4%)" stroke-width="1.5"></path><path d="M216.47 792.55L247.45 653.28" stroke="hsl(228.60000000000002, 84.1%, 22.4%)" stroke-width="1.5"></path><path d="M216.47 792.55L58.06 818.25" stroke="hsl(228.60000000000002, 84.1%, 22.4%)" stroke-width="1.5"></path><path d="M348.61 815.92L348.61 815.92" stroke="hsl(228.60000000000002, 84.1%, 22.4%)" stroke-width="1.5"></path><path d="M348.61 815.92L521.21 828.6" stroke="hsl(228.60000000000002, 84.1%, 22.4%)" stroke-width="1.5"></path><path d="M348.61 815.92L247.45 653.28" stroke="hsl(228.60000000000002, 84.1%, 22.4%)" stroke-width="1.5"></path><path d="M348.61 815.92L515.86 669.08" stroke="hsl(228.60000000000002, 84.1%, 22.4%)" stroke-width="1.5"></path><path d="M521.21 828.6L521.21 828.6" stroke="hsl(228.60000000000002, 84.1%, 22.4%)" stroke-width="1.5"></path><path d="M521.21 828.6L655.49 837.73" stroke="hsl(228.60000000000002, 84.1%, 22.4%)" stroke-width="1.5"></path><path d="M521.21 828.6L515.86 669.08" stroke="hsl(228.60000000000002, 84.1%, 22.4%)" stroke-width="1.5"></path><path d="M655.49 837.73L655.49 837.73" stroke="hsl(228.60000000000002, 84.1%, 22.4%)" stroke-width="1.5"></path><path d="M655.49 837.73L657.98 697.76" stroke="hsl(228.60000000000002, 84.1%, 22.4%)" stroke-width="1.5"></path><path d="M1116.43 530.47L1116.43 530.47" stroke="hsl(228.60000000000002, 84.1%, 22.4%)" stroke-width="1.5"></path><path d="M1116.43 530.47L1005.77 489.46" stroke="hsl(228.60000000000002, 84.1%, 22.4%)" stroke-width="1.5"></path><path d="M1116.43 530.47L1138.72 373.15" stroke="hsl(228.60000000000002, 84.1%, 22.4%)" stroke-width="1.5"></path><path d="M1116.43 530.47L1011.4 678.39" stroke="hsl(228.60000000000002, 84.1%, 22.4%)" stroke-width="1.5"></path><path d="M1288.25 -105.46L1288.25 -105.46" stroke="hsl(228.60000000000002, 84.1%, 22.4%)" stroke-width="1.5"></path><path d="M1288.25 -105.46L1429.94 -85.61" stroke="hsl(228.60000000000002, 84.1%, 22.4%)" stroke-width="1.5"></path><path d="M1288.25 -105.46L1295.14 58.81" stroke="hsl(228.60000000000002, 84.1%, 22.4%)" stroke-width="1.5"></path><path d="M1295.14 58.81L1295.14 58.81" stroke="hsl(228.60000000000002, 84.1%, 22.4%)" stroke-width="1.5"></path><path d="M1295.14 58.81L1424.61 69.11" stroke="hsl(228.60000000000002, 84.1%, 22.4%)" stroke-width="1.5"></path><path d="M1403.66 225.49L1403.66 225.49" stroke="hsl(228.60000000000002, 84.1%, 22.4%)" stroke-width="1.5"></path><path d="M1403.66 225.49L1447.28 365.9" stroke="hsl(228.60000000000002, 84.1%, 22.4%)" stroke-width="1.5"></path><path d="M1433.81 797.66L1433.81 797.66" stroke="hsl(228.60000000000002, 84.1%, 22.4%)" stroke-width="1.5"></path><path d="M1433.81 797.66L1397.92 710.11" stroke="hsl(228.60000000000002, 84.1%, 22.4%)" stroke-width="1.5"></path><path d="M1433.81 797.66L1569.04 833.91" stroke="hsl(228.60000000000002, 84.1%, 22.4%)" stroke-width="1.5"></path><path d="M1433.81 797.66L1285.8 806.26" stroke="hsl(228.60000000000002, 84.1%, 22.4%)" stroke-width="1.5"></path><path d="M1433.81 797.66L1288.95 639.48" stroke="hsl(228.60000000000002, 84.1%, 22.4%)" stroke-width="1.5"></path><path d="M1433.81 797.66L1450.52 552.45" stroke="hsl(228.60000000000002, 84.1%, 22.4%)" stroke-width="1.5"></path><path d="M1433.81 797.66L1152.59 816.81" stroke="hsl(228.60000000000002, 84.1%, 22.4%)" stroke-width="1.5"></path><path d="M1576.31 -59.91L1576.31 -59.91" stroke="hsl(228.60000000000002, 84.1%, 22.4%)" stroke-width="1.5"></path><path d="M1576.31 -59.91L1429.94 -85.61" stroke="hsl(228.60000000000002, 84.1%, 22.4%)" stroke-width="1.5"></path><path d="M1576.31 -59.91L1543.54 111.32" stroke="hsl(228.60000000000002, 84.1%, 22.4%)" stroke-width="1.5"></path><path d="M1576.31 -59.91L1424.61 69.11" stroke="hsl(228.60000000000002, 84.1%, 22.4%)" stroke-width="1.5"></path><path d="M1576.31 -59.91L1288.25 -105.46" stroke="hsl(228.60000000000002, 84.1%, 22.4%)" stroke-width="1.5"></path><path d="M1576.31 -59.91L1295.14 58.81" stroke="hsl(228.60000000000002, 84.1%, 22.4%)" stroke-width="1.5"></path><path d="M1576.31 -59.91L1603.36 252.9" stroke="hsl(228.60000000000002, 84.1%, 22.4%)" stroke-width="1.5"></path><path d="M-81.17 851.23L-81.17 851.23" stroke="hsl(228.60000000000002, 84.1%, 22.4%)" stroke-width="1.5"></path><path d="M-81.17 851.23L58.06 818.25" stroke="hsl(228.60000000000002, 84.1%, 22.4%)" stroke-width="1.5"></path><path d="M-81.17 851.23L71.55 674.48" stroke="hsl(228.60000000000002, 84.1%, 22.4%)" stroke-width="1.5"></path><path d="M-81.17 851.23L216.47 792.55" stroke="hsl(228.60000000000002, 84.1%, 22.4%)" stroke-width="1.5"></path><path d="M-81.17 851.23L247.45 653.28" stroke="hsl(228.60000000000002, 84.1%, 22.4%)" stroke-width="1.5"></path><path d="M-81.17 851.23L348.61 815.92" stroke="hsl(228.60000000000002, 84.1%, 22.4%)" stroke-width="1.5"></path><path d="M58.06 818.25L58.06 818.25" stroke="hsl(228.60000000000002, 84.1%, 22.4%)" stroke-width="1.5"></path><path d="M247.45 653.28L247.45 653.28" stroke="hsl(228.60000000000002, 84.1%, 22.4%)" stroke-width="1.5"></path><path d="M247.45 653.28L370.59 531.27" stroke="hsl(228.60000000000002, 84.1%, 22.4%)" stroke-width="1.5"></path><path d="M247.45 653.28L58.06 818.25" stroke="hsl(228.60000000000002, 84.1%, 22.4%)" stroke-width="1.5"></path><path d="M370.59 531.27L370.59 531.27" stroke="hsl(228.60000000000002, 84.1%, 22.4%)" stroke-width="1.5"></path><path d="M370.59 531.27L552.21 521.84" stroke="hsl(228.60000000000002, 84.1%, 22.4%)" stroke-width="1.5"></path><path d="M370.59 531.27L515.86 669.08" stroke="hsl(228.60000000000002, 84.1%, 22.4%)" stroke-width="1.5"></path><path d="M370.59 531.27L348.61 815.92" stroke="hsl(228.60000000000002, 84.1%, 22.4%)" stroke-width="1.5"></path><path d="M370.59 531.27L216.47 792.55" stroke="hsl(228.60000000000002, 84.1%, 22.4%)" stroke-width="1.5"></path><path d="M370.59 531.27L71.55 674.48" stroke="hsl(228.60000000000002, 84.1%, 22.4%)" stroke-width="1.5"></path><path d="M552.21 521.84L552.21 521.84" stroke="hsl(228.60000000000002, 84.1%, 22.4%)" stroke-width="1.5"></path><path d="M552.21 521.84L515.86 669.08" stroke="hsl(228.60000000000002, 84.1%, 22.4%)" stroke-width="1.5"></path><path d="M552.21 521.84L704.78 538.95" stroke="hsl(228.60000000000002, 84.1%, 22.4%)" stroke-width="1.5"></path><path d="M515.86 669.08L515.86 669.08" stroke="hsl(228.60000000000002, 84.1%, 22.4%)" stroke-width="1.5"></path><path d="M515.86 669.08L657.98 697.76" stroke="hsl(228.60000000000002, 84.1%, 22.4%)" stroke-width="1.5"></path><path d="M704.78 538.95L704.78 538.95" stroke="hsl(228.60000000000002, 84.1%, 22.4%)" stroke-width="1.5"></path><path d="M704.78 538.95L657.98 697.76" stroke="hsl(228.60000000000002, 84.1%, 22.4%)" stroke-width="1.5"></path><path d="M704.78 538.95L860.47 691.58" stroke="hsl(228.60000000000002, 84.1%, 22.4%)" stroke-width="1.5"></path><path d="M704.78 538.95L515.86 669.08" stroke="hsl(228.60000000000002, 84.1%, 22.4%)" stroke-width="1.5"></path><path d="M657.98 697.76L657.98 697.76" stroke="hsl(228.60000000000002, 84.1%, 22.4%)" stroke-width="1.5"></path><path d="M657.98 697.76L521.21 828.6" stroke="hsl(228.60000000000002, 84.1%, 22.4%)" stroke-width="1.5"></path><path d="M657.98 697.76L803.47 831.87" stroke="hsl(228.60000000000002, 84.1%, 22.4%)" stroke-width="1.5"></path><path d="M657.98 697.76L860.47 691.58" stroke="hsl(228.60000000000002, 84.1%, 22.4%)" stroke-width="1.5"></path><path d="M860.47 691.58L860.47 691.58" stroke="hsl(228.60000000000002, 84.1%, 22.4%)" stroke-width="1.5"></path><path d="M860.47 691.58L803.47 831.87" stroke="hsl(228.60000000000002, 84.1%, 22.4%)" stroke-width="1.5"></path><path d="M860.47 691.58L1011.4 678.39" stroke="hsl(228.60000000000002, 84.1%, 22.4%)" stroke-width="1.5"></path><path d="M803.47 831.87L803.47 831.87" stroke="hsl(228.60000000000002, 84.1%, 22.4%)" stroke-width="1.5"></path><path d="M803.47 831.87L655.49 837.73" stroke="hsl(228.60000000000002, 84.1%, 22.4%)" stroke-width="1.5"></path><path d="M803.47 831.87L984.63 855.75" stroke="hsl(228.60000000000002, 84.1%, 22.4%)" stroke-width="1.5"></path><path d="M803.47 831.87L1011.4 678.39" stroke="hsl(228.60000000000002, 84.1%, 22.4%)" stroke-width="1.5"></path><path d="M989.86 371.95L989.86 371.95" stroke="hsl(228.60000000000002, 84.1%, 22.4%)" stroke-width="1.5"></path><path d="M989.86 371.95L1005.77 489.46" stroke="hsl(228.60000000000002, 84.1%, 22.4%)" stroke-width="1.5"></path><path d="M989.86 371.95L1138.72 373.15" stroke="hsl(228.60000000000002, 84.1%, 22.4%)" stroke-width="1.5"></path><path d="M989.86 371.95L1103.88 230" stroke="hsl(228.60000000000002, 84.1%, 22.4%)" stroke-width="1.5"></path><path d="M989.86 371.95L1116.43 530.47" stroke="hsl(228.60000000000002, 84.1%, 22.4%)" stroke-width="1.5"></path><path d="M1005.77 489.46L1005.77 489.46" stroke="hsl(228.60000000000002, 84.1%, 22.4%)" stroke-width="1.5"></path><path d="M1011.4 678.39L1011.4 678.39" stroke="hsl(228.60000000000002, 84.1%, 22.4%)" stroke-width="1.5"></path><path d="M1011.4 678.39L1159.79 708.31" stroke="hsl(228.60000000000002, 84.1%, 22.4%)" stroke-width="1.5"></path><path d="M1011.4 678.39L984.63 855.75" stroke="hsl(228.60000000000002, 84.1%, 22.4%)" stroke-width="1.5"></path><path d="M1011.4 678.39L1005.77 489.46" stroke="hsl(228.60000000000002, 84.1%, 22.4%)" stroke-width="1.5"></path><path d="M984.63 855.75L984.63 855.75" stroke="hsl(228.60000000000002, 84.1%, 22.4%)" stroke-width="1.5"></path><path d="M984.63 855.75L1152.59 816.81" stroke="hsl(228.60000000000002, 84.1%, 22.4%)" stroke-width="1.5"></path><path d="M984.63 855.75L860.47 691.58" stroke="hsl(228.60000000000002, 84.1%, 22.4%)" stroke-width="1.5"></path><path d="M1103.88 230L1103.88 230" stroke="hsl(228.60000000000002, 84.1%, 22.4%)" stroke-width="1.5"></path><path d="M1103.88 230L1246.46 224" stroke="hsl(228.60000000000002, 84.1%, 22.4%)" stroke-width="1.5"></path><path d="M1103.88 230L1138.72 373.15" stroke="hsl(228.60000000000002, 84.1%, 22.4%)" stroke-width="1.5"></path><path d="M1138.72 373.15L1138.72 373.15" stroke="hsl(228.60000000000002, 84.1%, 22.4%)" stroke-width="1.5"></path><path d="M1138.72 373.15L1281.3 338.52" stroke="hsl(228.60000000000002, 84.1%, 22.4%)" stroke-width="1.5"></path><path d="M1159.79 708.31L1159.79 708.31" stroke="hsl(228.60000000000002, 84.1%, 22.4%)" stroke-width="1.5"></path><path d="M1159.79 708.31L1152.59 816.81" stroke="hsl(228.60000000000002, 84.1%, 22.4%)" stroke-width="1.5"></path><path d="M1159.79 708.31L1288.95 639.48" stroke="hsl(228.60000000000002, 84.1%, 22.4%)" stroke-width="1.5"></path><path d="M1152.59 816.81L1152.59 816.81" stroke="hsl(228.60000000000002, 84.1%, 22.4%)" stroke-width="1.5"></path><path d="M1152.59 816.81L1285.8 806.26" stroke="hsl(228.60000000000002, 84.1%, 22.4%)" stroke-width="1.5"></path><path d="M1246.46 224L1246.46 224" stroke="hsl(228.60000000000002, 84.1%, 22.4%)" stroke-width="1.5"></path><path d="M1246.46 224L1281.3 338.52" stroke="hsl(228.60000000000002, 84.1%, 22.4%)" stroke-width="1.5"></path><path d="M1246.46 224L1403.66 225.49" stroke="hsl(228.60000000000002, 84.1%, 22.4%)" stroke-width="1.5"></path><path d="M1246.46 224L1295.14 58.81" stroke="hsl(228.60000000000002, 84.1%, 22.4%)" stroke-width="1.5"></path><path d="M1246.46 224L1138.72 373.15" stroke="hsl(228.60000000000002, 84.1%, 22.4%)" stroke-width="1.5"></path><path d="M1246.46 224L1424.61 69.11" stroke="hsl(228.60000000000002, 84.1%, 22.4%)" stroke-width="1.5"></path><path d="M1281.3 338.52L1281.3 338.52" stroke="hsl(228.60000000000002, 84.1%, 22.4%)" stroke-width="1.5"></path><path d="M1281.3 338.52L1403.66 225.49" stroke="hsl(228.60000000000002, 84.1%, 22.4%)" stroke-width="1.5"></path><path d="M1281.3 338.52L1447.28 365.9" stroke="hsl(228.60000000000002, 84.1%, 22.4%)" stroke-width="1.5"></path><path d="M1281.3 338.52L1299.43 522.04" stroke="hsl(228.60000000000002, 84.1%, 22.4%)" stroke-width="1.5"></path><path d="M1281.3 338.52L1103.88 230" stroke="hsl(228.60000000000002, 84.1%, 22.4%)" stroke-width="1.5"></path><path d="M1299.43 522.04L1299.43 522.04" stroke="hsl(228.60000000000002, 84.1%, 22.4%)" stroke-width="1.5"></path><path d="M1299.43 522.04L1288.95 639.48" stroke="hsl(228.60000000000002, 84.1%, 22.4%)" stroke-width="1.5"></path><path d="M1299.43 522.04L1450.52 552.45" stroke="hsl(228.60000000000002, 84.1%, 22.4%)" stroke-width="1.5"></path><path d="M1299.43 522.04L1116.43 530.47" stroke="hsl(228.60000000000002, 84.1%, 22.4%)" stroke-width="1.5"></path><path d="M1299.43 522.04L1397.92 710.11" stroke="hsl(228.60000000000002, 84.1%, 22.4%)" stroke-width="1.5"></path><path d="M1299.43 522.04L1447.28 365.9" stroke="hsl(228.60000000000002, 84.1%, 22.4%)" stroke-width="1.5"></path><path d="M1288.95 639.48L1288.95 639.48" stroke="hsl(228.60000000000002, 84.1%, 22.4%)" stroke-width="1.5"></path><path d="M1288.95 639.48L1397.92 710.11" stroke="hsl(228.60000000000002, 84.1%, 22.4%)" stroke-width="1.5"></path><path d="M1288.95 639.48L1285.8 806.26" stroke="hsl(228.60000000000002, 84.1%, 22.4%)" stroke-width="1.5"></path><path d="M1288.95 639.48L1450.52 552.45" stroke="hsl(228.60000000000002, 84.1%, 22.4%)" stroke-width="1.5"></path><path d="M1285.8 806.26L1285.8 806.26" stroke="hsl(228.60000000000002, 84.1%, 22.4%)" stroke-width="1.5"></path><path d="M1429.94 -85.61L1429.94 -85.61" stroke="hsl(228.60000000000002, 84.1%, 22.4%)" stroke-width="1.5"></path><path d="M1429.94 -85.61L1424.61 69.11" stroke="hsl(228.60000000000002, 84.1%, 22.4%)" stroke-width="1.5"></path><path d="M1429.94 -85.61L1295.14 58.81" stroke="hsl(228.60000000000002, 84.1%, 22.4%)" stroke-width="1.5"></path><path d="M1429.94 -85.61L1543.54 111.32" stroke="hsl(228.60000000000002, 84.1%, 22.4%)" stroke-width="1.5"></path><path d="M1429.94 -85.61L1403.66 225.49" stroke="hsl(228.60000000000002, 84.1%, 22.4%)" stroke-width="1.5"></path><path d="M1424.61 69.11L1424.61 69.11" stroke="hsl(228.60000000000002, 84.1%, 22.4%)" stroke-width="1.5"></path><path d="M1424.61 69.11L1543.54 111.32" stroke="hsl(228.60000000000002, 84.1%, 22.4%)" stroke-width="1.5"></path><path d="M1447.28 365.9L1447.28 365.9" stroke="hsl(228.60000000000002, 84.1%, 22.4%)" stroke-width="1.5"></path><path d="M1450.52 552.45L1450.52 552.45" stroke="hsl(228.60000000000002, 84.1%, 22.4%)" stroke-width="1.5"></path><path d="M1450.52 552.45L1562.65 507.11" stroke="hsl(228.60000000000002, 84.1%, 22.4%)" stroke-width="1.5"></path><path d="M1450.52 552.45L1397.92 710.11" stroke="hsl(228.60000000000002, 84.1%, 22.4%)" stroke-width="1.5"></path><path d="M1397.92 710.11L1397.92 710.11" stroke="hsl(228.60000000000002, 84.1%, 22.4%)" stroke-width="1.5"></path><path d="M1543.54 111.32L1543.54 111.32" stroke="hsl(228.60000000000002, 84.1%, 22.4%)" stroke-width="1.5"></path><path d="M1543.54 111.32L1603.36 252.9" stroke="hsl(228.60000000000002, 84.1%, 22.4%)" stroke-width="1.5"></path><path d="M1543.54 111.32L1403.66 225.49" stroke="hsl(228.60000000000002, 84.1%, 22.4%)" stroke-width="1.5"></path><path d="M1603.36 252.9L1603.36 252.9" stroke="hsl(228.60000000000002, 84.1%, 22.4%)" stroke-width="1.5"></path><path d="M1603.36 252.9L1609.79 410.84" stroke="hsl(228.60000000000002, 84.1%, 22.4%)" stroke-width="1.5"></path><path d="M1603.36 252.9L1447.28 365.9" stroke="hsl(228.60000000000002, 84.1%, 22.4%)" stroke-width="1.5"></path><path d="M1603.36 252.9L1403.66 225.49" stroke="hsl(228.60000000000002, 84.1%, 22.4%)" stroke-width="1.5"></path><path d="M1603.36 252.9L1424.61 69.11" stroke="hsl(228.60000000000002, 84.1%, 22.4%)" stroke-width="1.5"></path><path d="M1609.79 410.84L1609.79 410.84" stroke="hsl(228.60000000000002, 84.1%, 22.4%)" stroke-width="1.5"></path><path d="M1609.79 410.84L1562.65 507.11" stroke="hsl(228.60000000000002, 84.1%, 22.4%)" stroke-width="1.5"></path><path d="M1609.79 410.84L1447.28 365.9" stroke="hsl(228.60000000000002, 84.1%, 22.4%)" stroke-width="1.5"></path><path d="M1609.79 410.84L1450.52 552.45" stroke="hsl(228.60000000000002, 84.1%, 22.4%)" stroke-width="1.5"></path><path d="M1609.79 410.84L1403.66 225.49" stroke="hsl(228.60000000000002, 84.1%, 22.4%)" stroke-width="1.5"></path><path d="M1609.79 410.84L1543.54 111.32" stroke="hsl(228.60000000000002, 84.1%, 22.4%)" stroke-width="1.5"></path><path d="M1562.65 507.11L1562.65 507.11" stroke="hsl(228.60000000000002, 84.1%, 22.4%)" stroke-width="1.5"></path><path d="M1562.65 507.11L1447.28 365.9" stroke="hsl(228.60000000000002, 84.1%, 22.4%)" stroke-width="1.5"></path><path d="M1569.04 833.91L1569.04 833.91" stroke="hsl(228.60000000000002, 84.1%, 22.4%)" stroke-width="1.5"></path><path d="M1569.04 833.91L1397.92 710.11" stroke="hsl(228.60000000000002, 84.1%, 22.4%)" stroke-width="1.5"></path><circle r="25" cx="-71.07" cy="667.93" fill="url(&quot;#SvgjsRadialGradient1011&quot;)"></circle><circle r="25" cx="71.55" cy="674.48" fill="url(&quot;#SvgjsRadialGradient1011&quot;)"></circle><circle r="25" cx="216.47" cy="792.55" fill="url(&quot;#SvgjsRadialGradient1011&quot;)"></circle><circle r="25" cx="348.61" cy="815.92" fill="url(&quot;#SvgjsRadialGradient1011&quot;)"></circle><circle r="25" cx="521.21" cy="828.6" fill="url(&quot;#SvgjsRadialGradient1011&quot;)"></circle><circle r="25" cx="655.49" cy="837.73" fill="url(&quot;#SvgjsRadialGradient1011&quot;)"></circle><circle r="25" cx="1116.43" cy="530.47" fill="url(&quot;#SvgjsRadialGradient1011&quot;)"></circle><circle r="25" cx="1288.25" cy="-105.46" fill="url(&quot;#SvgjsRadialGradient1011&quot;)"></circle><circle r="25" cx="1295.14" cy="58.81" fill="url(&quot;#SvgjsRadialGradient1011&quot;)"></circle><circle r="25" cx="1403.66" cy="225.49" fill="url(&quot;#SvgjsRadialGradient1011&quot;)"></circle><circle r="25" cx="1433.81" cy="797.66" fill="url(&quot;#SvgjsRadialGradient1011&quot;)"></circle><circle r="25" cx="1576.31" cy="-59.91" fill="url(&quot;#SvgjsRadialGradient1011&quot;)"></circle><circle r="5" cx="-81.17" cy="851.23" fill="#838aa8"></circle><circle r="5" cx="58.06" cy="818.25" fill="#838aa8"></circle><circle r="5" cx="247.45" cy="653.28" fill="#838aa8"></circle><circle r="5" cx="370.59" cy="531.27" fill="#838aa8"></circle><circle r="5" cx="552.21" cy="521.84" fill="#838aa8"></circle><circle r="5" cx="515.86" cy="669.08" fill="#838aa8"></circle><circle r="5" cx="704.78" cy="538.95" fill="#838aa8"></circle><circle r="5" cx="657.98" cy="697.76" fill="#838aa8"></circle><circle r="5" cx="860.47" cy="691.58" fill="#838aa8"></circle><circle r="5" cx="803.47" cy="831.87" fill="#838aa8"></circle><circle r="5" cx="989.86" cy="371.95" fill="#838aa8"></circle><circle r="5" cx="1005.77" cy="489.46" fill="#838aa8"></circle><circle r="5" cx="1011.4" cy="678.39" fill="#838aa8"></circle><circle r="5" cx="984.63" cy="855.75" fill="#838aa8"></circle><circle r="5" cx="1103.88" cy="230" fill="#838aa8"></circle><circle r="5" cx="1138.72" cy="373.15" fill="#838aa8"></circle><circle r="5" cx="1159.79" cy="708.31" fill="#838aa8"></circle><circle r="5" cx="1152.59" cy="816.81" fill="#838aa8"></circle><circle r="5" cx="1246.46" cy="224" fill="#838aa8"></circle><circle r="5" cx="1281.3" cy="338.52" fill="#838aa8"></circle><circle r="5" cx="1299.43" cy="522.04" fill="#838aa8"></circle><circle r="5" cx="1288.95" cy="639.48" fill="#838aa8"></circle><circle r="5" cx="1285.8" cy="806.26" fill="#838aa8"></circle><circle r="5" cx="1429.94" cy="-85.61" fill="#838aa8"></circle><circle r="5" cx="1424.61" cy="69.11" fill="#838aa8"></circle><circle r="5" cx="1447.28" cy="365.9" fill="#838aa8"></circle><circle r="5" cx="1450.52" cy="552.45" fill="#838aa8"></circle><circle r="5" cx="1397.92" cy="710.11" fill="#838aa8"></circle><circle r="5" cx="1543.54" cy="111.32" fill="#838aa8"></circle><circle r="5" cx="1603.36" cy="252.9" fill="#838aa8"></circle><circle r="5" cx="1609.79" cy="410.84" fill="#838aa8"></circle><circle r="5" cx="1562.65" cy="507.11" fill="#838aa8"></circle><circle r="5" cx="1569.04" cy="833.91" fill="#838aa8"></circle></g><defs><mask id="SvgjsMask1010"><rect width="1440" height="700" fill="#ffffff"></rect></mask><radialGradient id="SvgjsRadialGradient1011"><stop stop-color="#ffffff" offset="0.1"></stop><stop stop-color="rgba(7, 21, 81, 1)" offset="0.2"></stop><stop stop-color="rgba(7, 21, 81, 0)" offset="1"></stop></radialGradient></defs></svg>