<svg xmlns="http://www.w3.org/2000/svg" version="1.1" xmlns:xlink="http://www.w3.org/1999/xlink" xmlns:svgjs="http://svgjs.dev/svgjs" width="1440" height="700" preserveAspectRatio="none" viewBox="0 0 1440 700"><g mask="url(&quot;#SvgjsMask1018&quot;)" fill="none"><rect width="1440" height="700" x="0" y="0" fill="rgba(17, 42, 68, 1)"></rect><path d="M-55.49 497.16L-55.49 497.16" stroke="rgba(0, 0, 0, 1)" stroke-width="1.5"></path><path d="M-55.49 497.16L55.37 538.1" stroke="rgba(0, 0, 0, 1)" stroke-width="1.5"></path><path d="M-55.49 497.16L-91.33 674.77" stroke="rgba(0, 0, 0, 1)" stroke-width="1.5"></path><path d="M-55.49 497.16L72.01 709.59" stroke="rgba(0, 0, 0, 1)" stroke-width="1.5"></path><path d="M-55.49 497.16L198.4 502.41" stroke="rgba(0, 0, 0, 1)" stroke-width="1.5"></path><path d="M-55.49 497.16L-48.2 794.79" stroke="rgba(0, 0, 0, 1)" stroke-width="1.5"></path><path d="M-91.33 674.77L-91.33 674.77" stroke="rgba(0, 0, 0, 1)" stroke-width="1.5"></path><path d="M-91.33 674.77L-48.2 794.79" stroke="rgba(0, 0, 0, 1)" stroke-width="1.5"></path><path d="M-91.33 674.77L72.01 709.59" stroke="rgba(0, 0, 0, 1)" stroke-width="1.5"></path><path d="M-48.2 794.79L-48.2 794.79" stroke="rgba(0, 0, 0, 1)" stroke-width="1.5"></path><path d="M-48.2 794.79L75.55 852.46" stroke="rgba(0, 0, 0, 1)" stroke-width="1.5"></path><path d="M-48.2 794.79L72.01 709.59" stroke="rgba(0, 0, 0, 1)" stroke-width="1.5"></path><path d="M-48.2 794.79L207.52 690.04" stroke="rgba(0, 0, 0, 1)" stroke-width="1.5"></path><path d="M55.37 538.1L55.37 538.1" stroke="rgba(0, 0, 0, 1)" stroke-width="1.5"></path><path d="M55.37 538.1L198.4 502.41" stroke="rgba(0, 0, 0, 1)" stroke-width="1.5"></path><path d="M55.37 538.1L72.01 709.59" stroke="rgba(0, 0, 0, 1)" stroke-width="1.5"></path><path d="M55.37 538.1L-91.33 674.77" stroke="rgba(0, 0, 0, 1)" stroke-width="1.5"></path><path d="M55.37 538.1L207.52 690.04" stroke="rgba(0, 0, 0, 1)" stroke-width="1.5"></path><path d="M72.01 709.59L72.01 709.59" stroke="rgba(0, 0, 0, 1)" stroke-width="1.5"></path><path d="M72.01 709.59L207.52 690.04" stroke="rgba(0, 0, 0, 1)" stroke-width="1.5"></path><path d="M72.01 709.59L75.55 852.46" stroke="rgba(0, 0, 0, 1)" stroke-width="1.5"></path><path d="M75.55 852.46L75.55 852.46" stroke="rgba(0, 0, 0, 1)" stroke-width="1.5"></path><path d="M230.15 406.67L230.15 406.67" stroke="rgba(0, 0, 0, 1)" stroke-width="1.5"></path><path d="M230.15 406.67L198.4 502.41" stroke="rgba(0, 0, 0, 1)" stroke-width="1.5"></path><path d="M230.15 406.67L55.37 538.1" stroke="rgba(0, 0, 0, 1)" stroke-width="1.5"></path><path d="M230.15 406.67L396.94 550.72" stroke="rgba(0, 0, 0, 1)" stroke-width="1.5"></path><path d="M230.15 406.67L207.52 690.04" stroke="rgba(0, 0, 0, 1)" stroke-width="1.5"></path><path d="M230.15 406.67L523.16 366.24" stroke="rgba(0, 0, 0, 1)" stroke-width="1.5"></path><path d="M198.4 502.41L198.4 502.41" stroke="rgba(0, 0, 0, 1)" stroke-width="1.5"></path><path d="M207.52 690.04L207.52 690.04" stroke="rgba(0, 0, 0, 1)" stroke-width="1.5"></path><path d="M207.52 690.04L250.11 817.33" stroke="rgba(0, 0, 0, 1)" stroke-width="1.5"></path><path d="M207.52 690.04L346.22 707.59" stroke="rgba(0, 0, 0, 1)" stroke-width="1.5"></path><path d="M207.52 690.04L198.4 502.41" stroke="rgba(0, 0, 0, 1)" stroke-width="1.5"></path><path d="M207.52 690.04L75.55 852.46" stroke="rgba(0, 0, 0, 1)" stroke-width="1.5"></path><path d="M250.11 817.33L250.11 817.33" stroke="rgba(0, 0, 0, 1)" stroke-width="1.5"></path><path d="M250.11 817.33L371.12 859.49" stroke="rgba(0, 0, 0, 1)" stroke-width="1.5"></path><path d="M250.11 817.33L346.22 707.59" stroke="rgba(0, 0, 0, 1)" stroke-width="1.5"></path><path d="M396.94 550.72L396.94 550.72" stroke="rgba(0, 0, 0, 1)" stroke-width="1.5"></path><path d="M396.94 550.72L549.73 497.65" stroke="rgba(0, 0, 0, 1)" stroke-width="1.5"></path><path d="M396.94 550.72L346.22 707.59" stroke="rgba(0, 0, 0, 1)" stroke-width="1.5"></path><path d="M396.94 550.72L529.31 687.61" stroke="rgba(0, 0, 0, 1)" stroke-width="1.5"></path><path d="M396.94 550.72L198.4 502.41" stroke="rgba(0, 0, 0, 1)" stroke-width="1.5"></path><path d="M396.94 550.72L523.16 366.24" stroke="rgba(0, 0, 0, 1)" stroke-width="1.5"></path><path d="M346.22 707.59L346.22 707.59" stroke="rgba(0, 0, 0, 1)" stroke-width="1.5"></path><path d="M346.22 707.59L371.12 859.49" stroke="rgba(0, 0, 0, 1)" stroke-width="1.5"></path><path d="M346.22 707.59L529.31 687.61" stroke="rgba(0, 0, 0, 1)" stroke-width="1.5"></path><path d="M346.22 707.59L511.83 798.17" stroke="rgba(0, 0, 0, 1)" stroke-width="1.5"></path><path d="M371.12 859.49L371.12 859.49" stroke="rgba(0, 0, 0, 1)" stroke-width="1.5"></path><path d="M371.12 859.49L511.83 798.17" stroke="rgba(0, 0, 0, 1)" stroke-width="1.5"></path><path d="M371.12 859.49L529.31 687.61" stroke="rgba(0, 0, 0, 1)" stroke-width="1.5"></path><path d="M523.16 366.24L523.16 366.24" stroke="rgba(0, 0, 0, 1)" stroke-width="1.5"></path><path d="M523.16 366.24L656.08 378.16" stroke="rgba(0, 0, 0, 1)" stroke-width="1.5"></path><path d="M523.16 366.24L549.73 497.65" stroke="rgba(0, 0, 0, 1)" stroke-width="1.5"></path><path d="M523.16 366.24L660.69 512.35" stroke="rgba(0, 0, 0, 1)" stroke-width="1.5"></path><path d="M549.73 497.65L549.73 497.65" stroke="rgba(0, 0, 0, 1)" stroke-width="1.5"></path><path d="M549.73 497.65L660.69 512.35" stroke="rgba(0, 0, 0, 1)" stroke-width="1.5"></path><path d="M549.73 497.65L656.08 378.16" stroke="rgba(0, 0, 0, 1)" stroke-width="1.5"></path><path d="M549.73 497.65L529.31 687.61" stroke="rgba(0, 0, 0, 1)" stroke-width="1.5"></path><path d="M549.73 497.65L686.33 670.35" stroke="rgba(0, 0, 0, 1)" stroke-width="1.5"></path><path d="M529.31 687.61L529.31 687.61" stroke="rgba(0, 0, 0, 1)" stroke-width="1.5"></path><path d="M529.31 687.61L511.83 798.17" stroke="rgba(0, 0, 0, 1)" stroke-width="1.5"></path><path d="M529.31 687.61L686.33 670.35" stroke="rgba(0, 0, 0, 1)" stroke-width="1.5"></path><path d="M511.83 798.17L511.83 798.17" stroke="rgba(0, 0, 0, 1)" stroke-width="1.5"></path><path d="M511.83 798.17L662.61 851.63" stroke="rgba(0, 0, 0, 1)" stroke-width="1.5"></path><path d="M511.83 798.17L686.33 670.35" stroke="rgba(0, 0, 0, 1)" stroke-width="1.5"></path><path d="M656.08 378.16L656.08 378.16" stroke="rgba(0, 0, 0, 1)" stroke-width="1.5"></path><path d="M656.08 378.16L660.69 512.35" stroke="rgba(0, 0, 0, 1)" stroke-width="1.5"></path><path d="M656.08 378.16L792.26 405.88" stroke="rgba(0, 0, 0, 1)" stroke-width="1.5"></path><path d="M656.08 378.16L821.8 550.49" stroke="rgba(0, 0, 0, 1)" stroke-width="1.5"></path><path d="M656.08 378.16L850.47 203.63" stroke="rgba(0, 0, 0, 1)" stroke-width="1.5"></path><path d="M660.69 512.35L660.69 512.35" stroke="rgba(0, 0, 0, 1)" stroke-width="1.5"></path><path d="M660.69 512.35L686.33 670.35" stroke="rgba(0, 0, 0, 1)" stroke-width="1.5"></path><path d="M660.69 512.35L821.8 550.49" stroke="rgba(0, 0, 0, 1)" stroke-width="1.5"></path><path d="M660.69 512.35L792.26 405.88" stroke="rgba(0, 0, 0, 1)" stroke-width="1.5"></path><path d="M686.33 670.35L686.33 670.35" stroke="rgba(0, 0, 0, 1)" stroke-width="1.5"></path><path d="M686.33 670.35L809.79 705.59" stroke="rgba(0, 0, 0, 1)" stroke-width="1.5"></path><path d="M686.33 670.35L821.8 550.49" stroke="rgba(0, 0, 0, 1)" stroke-width="1.5"></path><path d="M662.61 851.63L662.61 851.63" stroke="rgba(0, 0, 0, 1)" stroke-width="1.5"></path><path d="M662.61 851.63L797.65 842.08" stroke="rgba(0, 0, 0, 1)" stroke-width="1.5"></path><path d="M662.61 851.63L686.33 670.35" stroke="rgba(0, 0, 0, 1)" stroke-width="1.5"></path><path d="M662.61 851.63L809.79 705.59" stroke="rgba(0, 0, 0, 1)" stroke-width="1.5"></path><path d="M857.74 74.96L857.74 74.96" stroke="rgba(0, 0, 0, 1)" stroke-width="1.5"></path><path d="M857.74 74.96L850.47 203.63" stroke="rgba(0, 0, 0, 1)" stroke-width="1.5"></path><path d="M857.74 74.96L994.3 63.4" stroke="rgba(0, 0, 0, 1)" stroke-width="1.5"></path><path d="M857.74 74.96L961.07 197.63" stroke="rgba(0, 0, 0, 1)" stroke-width="1.5"></path><path d="M857.74 74.96L957.76 -103.19" stroke="rgba(0, 0, 0, 1)" stroke-width="1.5"></path><path d="M857.74 74.96L1139.57 65.16" stroke="rgba(0, 0, 0, 1)" stroke-width="1.5"></path><path d="M850.47 203.63L850.47 203.63" stroke="rgba(0, 0, 0, 1)" stroke-width="1.5"></path><path d="M850.47 203.63L961.07 197.63" stroke="rgba(0, 0, 0, 1)" stroke-width="1.5"></path><path d="M850.47 203.63L978.92 351.14" stroke="rgba(0, 0, 0, 1)" stroke-width="1.5"></path><path d="M850.47 203.63L994.3 63.4" stroke="rgba(0, 0, 0, 1)" stroke-width="1.5"></path><path d="M850.47 203.63L792.26 405.88" stroke="rgba(0, 0, 0, 1)" stroke-width="1.5"></path><path d="M850.47 203.63L1096.25 245.66" stroke="rgba(0, 0, 0, 1)" stroke-width="1.5"></path><path d="M792.26 405.88L792.26 405.88" stroke="rgba(0, 0, 0, 1)" stroke-width="1.5"></path><path d="M792.26 405.88L821.8 550.49" stroke="rgba(0, 0, 0, 1)" stroke-width="1.5"></path><path d="M821.8 550.49L821.8 550.49" stroke="rgba(0, 0, 0, 1)" stroke-width="1.5"></path><path d="M821.8 550.49L809.79 705.59" stroke="rgba(0, 0, 0, 1)" stroke-width="1.5"></path><path d="M821.8 550.49L979.22 552" stroke="rgba(0, 0, 0, 1)" stroke-width="1.5"></path><path d="M809.79 705.59L809.79 705.59" stroke="rgba(0, 0, 0, 1)" stroke-width="1.5"></path><path d="M809.79 705.59L797.65 842.08" stroke="rgba(0, 0, 0, 1)" stroke-width="1.5"></path><path d="M797.65 842.08L797.65 842.08" stroke="rgba(0, 0, 0, 1)" stroke-width="1.5"></path><path d="M797.65 842.08L959.44 811.99" stroke="rgba(0, 0, 0, 1)" stroke-width="1.5"></path><path d="M797.65 842.08L686.33 670.35" stroke="rgba(0, 0, 0, 1)" stroke-width="1.5"></path><path d="M797.65 842.08L1010.82 709.66" stroke="rgba(0, 0, 0, 1)" stroke-width="1.5"></path><path d="M797.65 842.08L511.83 798.17" stroke="rgba(0, 0, 0, 1)" stroke-width="1.5"></path><path d="M957.76 -103.19L957.76 -103.19" stroke="rgba(0, 0, 0, 1)" stroke-width="1.5"></path><path d="M957.76 -103.19L994.3 63.4" stroke="rgba(0, 0, 0, 1)" stroke-width="1.5"></path><path d="M957.76 -103.19L1152.1 -44.48" stroke="rgba(0, 0, 0, 1)" stroke-width="1.5"></path><path d="M994.3 63.4L994.3 63.4" stroke="rgba(0, 0, 0, 1)" stroke-width="1.5"></path><path d="M994.3 63.4L961.07 197.63" stroke="rgba(0, 0, 0, 1)" stroke-width="1.5"></path><path d="M961.07 197.63L961.07 197.63" stroke="rgba(0, 0, 0, 1)" stroke-width="1.5"></path><path d="M978.92 351.14L978.92 351.14" stroke="rgba(0, 0, 0, 1)" stroke-width="1.5"></path><path d="M978.92 351.14L961.07 197.63" stroke="rgba(0, 0, 0, 1)" stroke-width="1.5"></path><path d="M978.92 351.14L1136.4 353.89" stroke="rgba(0, 0, 0, 1)" stroke-width="1.5"></path><path d="M978.92 351.14L1096.25 245.66" stroke="rgba(0, 0, 0, 1)" stroke-width="1.5"></path><path d="M978.92 351.14L792.26 405.88" stroke="rgba(0, 0, 0, 1)" stroke-width="1.5"></path><path d="M979.22 552L979.22 552" stroke="rgba(0, 0, 0, 1)" stroke-width="1.5"></path><path d="M979.22 552L1010.82 709.66" stroke="rgba(0, 0, 0, 1)" stroke-width="1.5"></path><path d="M979.22 552L1092.96 669.54" stroke="rgba(0, 0, 0, 1)" stroke-width="1.5"></path><path d="M1010.82 709.66L1010.82 709.66" stroke="rgba(0, 0, 0, 1)" stroke-width="1.5"></path><path d="M1010.82 709.66L1092.96 669.54" stroke="rgba(0, 0, 0, 1)" stroke-width="1.5"></path><path d="M1010.82 709.66L959.44 811.99" stroke="rgba(0, 0, 0, 1)" stroke-width="1.5"></path><path d="M959.44 811.99L959.44 811.99" stroke="rgba(0, 0, 0, 1)" stroke-width="1.5"></path><path d="M1152.1 -44.48L1152.1 -44.48" stroke="rgba(0, 0, 0, 1)" stroke-width="1.5"></path><path d="M1152.1 -44.48L1139.57 65.16" stroke="rgba(0, 0, 0, 1)" stroke-width="1.5"></path><path d="M1152.1 -44.48L1309.2 -110.29" stroke="rgba(0, 0, 0, 1)" stroke-width="1.5"></path><path d="M1152.1 -44.48L994.3 63.4" stroke="rgba(0, 0, 0, 1)" stroke-width="1.5"></path><path d="M1152.1 -44.48L1307.85 79.78" stroke="rgba(0, 0, 0, 1)" stroke-width="1.5"></path><path d="M1139.57 65.16L1139.57 65.16" stroke="rgba(0, 0, 0, 1)" stroke-width="1.5"></path><path d="M1139.57 65.16L994.3 63.4" stroke="rgba(0, 0, 0, 1)" stroke-width="1.5"></path><path d="M1139.57 65.16L1307.85 79.78" stroke="rgba(0, 0, 0, 1)" stroke-width="1.5"></path><path d="M1096.25 245.66L1096.25 245.66" stroke="rgba(0, 0, 0, 1)" stroke-width="1.5"></path><path d="M1096.25 245.66L1136.4 353.89" stroke="rgba(0, 0, 0, 1)" stroke-width="1.5"></path><path d="M1096.25 245.66L961.07 197.63" stroke="rgba(0, 0, 0, 1)" stroke-width="1.5"></path><path d="M1136.4 353.89L1136.4 353.89" stroke="rgba(0, 0, 0, 1)" stroke-width="1.5"></path><path d="M1136.4 353.89L1259.32 356.54" stroke="rgba(0, 0, 0, 1)" stroke-width="1.5"></path><path d="M1146.95 500L1146.95 500" stroke="rgba(0, 0, 0, 1)" stroke-width="1.5"></path><path d="M1146.95 500L1136.4 353.89" stroke="rgba(0, 0, 0, 1)" stroke-width="1.5"></path><path d="M1146.95 500L979.22 552" stroke="rgba(0, 0, 0, 1)" stroke-width="1.5"></path><path d="M1146.95 500L1092.96 669.54" stroke="rgba(0, 0, 0, 1)" stroke-width="1.5"></path><path d="M1146.95 500L1259.32 356.54" stroke="rgba(0, 0, 0, 1)" stroke-width="1.5"></path><path d="M1092.96 669.54L1092.96 669.54" stroke="rgba(0, 0, 0, 1)" stroke-width="1.5"></path><path d="M1092.96 669.54L1142.62 827.29" stroke="rgba(0, 0, 0, 1)" stroke-width="1.5"></path><path d="M1092.96 669.54L959.44 811.99" stroke="rgba(0, 0, 0, 1)" stroke-width="1.5"></path><path d="M1092.96 669.54L1303.22 705.3" stroke="rgba(0, 0, 0, 1)" stroke-width="1.5"></path><path d="M1142.62 827.29L1142.62 827.29" stroke="rgba(0, 0, 0, 1)" stroke-width="1.5"></path><path d="M1142.62 827.29L1010.82 709.66" stroke="rgba(0, 0, 0, 1)" stroke-width="1.5"></path><path d="M1142.62 827.29L959.44 811.99" stroke="rgba(0, 0, 0, 1)" stroke-width="1.5"></path><path d="M1309.2 -110.29L1309.2 -110.29" stroke="rgba(0, 0, 0, 1)" stroke-width="1.5"></path><path d="M1309.2 -110.29L1409.99 -98.79" stroke="rgba(0, 0, 0, 1)" stroke-width="1.5"></path><path d="M1309.2 -110.29L1307.85 79.78" stroke="rgba(0, 0, 0, 1)" stroke-width="1.5"></path><path d="M1307.85 79.78L1307.85 79.78" stroke="rgba(0, 0, 0, 1)" stroke-width="1.5"></path><path d="M1307.85 79.78L1398.73 94.64" stroke="rgba(0, 0, 0, 1)" stroke-width="1.5"></path><path d="M1307.85 79.78L1311.42 218.72" stroke="rgba(0, 0, 0, 1)" stroke-width="1.5"></path><path d="M1307.85 79.78L1444.41 208.44" stroke="rgba(0, 0, 0, 1)" stroke-width="1.5"></path><path d="M1311.42 218.72L1311.42 218.72" stroke="rgba(0, 0, 0, 1)" stroke-width="1.5"></path><path d="M1311.42 218.72L1444.41 208.44" stroke="rgba(0, 0, 0, 1)" stroke-width="1.5"></path><path d="M1259.32 356.54L1259.32 356.54" stroke="rgba(0, 0, 0, 1)" stroke-width="1.5"></path><path d="M1259.32 356.54L1311.42 218.72" stroke="rgba(0, 0, 0, 1)" stroke-width="1.5"></path><path d="M1303.22 705.3L1303.22 705.3" stroke="rgba(0, 0, 0, 1)" stroke-width="1.5"></path><path d="M1303.22 705.3L1421.58 659.65" stroke="rgba(0, 0, 0, 1)" stroke-width="1.5"></path><path d="M1303.22 705.3L1446.56 820.18" stroke="rgba(0, 0, 0, 1)" stroke-width="1.5"></path><path d="M1303.22 705.3L1142.62 827.29" stroke="rgba(0, 0, 0, 1)" stroke-width="1.5"></path><path d="M1303.22 705.3L1442.81 500.15" stroke="rgba(0, 0, 0, 1)" stroke-width="1.5"></path><path d="M1409.99 -98.79L1409.99 -98.79" stroke="rgba(0, 0, 0, 1)" stroke-width="1.5"></path><path d="M1409.99 -98.79L1541.56 -45.58" stroke="rgba(0, 0, 0, 1)" stroke-width="1.5"></path><path d="M1398.73 94.64L1398.73 94.64" stroke="rgba(0, 0, 0, 1)" stroke-width="1.5"></path><path d="M1398.73 94.64L1444.41 208.44" stroke="rgba(0, 0, 0, 1)" stroke-width="1.5"></path><path d="M1398.73 94.64L1311.42 218.72" stroke="rgba(0, 0, 0, 1)" stroke-width="1.5"></path><path d="M1444.41 208.44L1444.41 208.44" stroke="rgba(0, 0, 0, 1)" stroke-width="1.5"></path><path d="M1444.41 208.44L1545.62 213.14" stroke="rgba(0, 0, 0, 1)" stroke-width="1.5"></path><path d="M1442.81 500.15L1442.81 500.15" stroke="rgba(0, 0, 0, 1)" stroke-width="1.5"></path><path d="M1442.81 500.15L1421.58 659.65" stroke="rgba(0, 0, 0, 1)" stroke-width="1.5"></path><path d="M1442.81 500.15L1600.06 544.03" stroke="rgba(0, 0, 0, 1)" stroke-width="1.5"></path><path d="M1442.81 500.15L1562.67 380.88" stroke="rgba(0, 0, 0, 1)" stroke-width="1.5"></path><path d="M1421.58 659.65L1421.58 659.65" stroke="rgba(0, 0, 0, 1)" stroke-width="1.5"></path><path d="M1421.58 659.65L1446.56 820.18" stroke="rgba(0, 0, 0, 1)" stroke-width="1.5"></path><path d="M1446.56 820.18L1446.56 820.18" stroke="rgba(0, 0, 0, 1)" stroke-width="1.5"></path><path d="M1446.56 820.18L1572.98 791.79" stroke="rgba(0, 0, 0, 1)" stroke-width="1.5"></path><path d="M1541.56 -45.58L1541.56 -45.58" stroke="rgba(0, 0, 0, 1)" stroke-width="1.5"></path><path d="M1541.56 -45.58L1567.83 93.3" stroke="rgba(0, 0, 0, 1)" stroke-width="1.5"></path><path d="M1541.56 -45.58L1398.73 94.64" stroke="rgba(0, 0, 0, 1)" stroke-width="1.5"></path><path d="M1541.56 -45.58L1309.2 -110.29" stroke="rgba(0, 0, 0, 1)" stroke-width="1.5"></path><path d="M1541.56 -45.58L1545.62 213.14" stroke="rgba(0, 0, 0, 1)" stroke-width="1.5"></path><path d="M1567.83 93.3L1567.83 93.3" stroke="rgba(0, 0, 0, 1)" stroke-width="1.5"></path><path d="M1567.83 93.3L1545.62 213.14" stroke="rgba(0, 0, 0, 1)" stroke-width="1.5"></path><path d="M1567.83 93.3L1444.41 208.44" stroke="rgba(0, 0, 0, 1)" stroke-width="1.5"></path><path d="M1545.62 213.14L1545.62 213.14" stroke="rgba(0, 0, 0, 1)" stroke-width="1.5"></path><path d="M1562.67 380.88L1562.67 380.88" stroke="rgba(0, 0, 0, 1)" stroke-width="1.5"></path><path d="M1562.67 380.88L1600.06 544.03" stroke="rgba(0, 0, 0, 1)" stroke-width="1.5"></path><path d="M1562.67 380.88L1545.62 213.14" stroke="rgba(0, 0, 0, 1)" stroke-width="1.5"></path><path d="M1600.06 544.03L1600.06 544.03" stroke="rgba(0, 0, 0, 1)" stroke-width="1.5"></path><path d="M1572.98 791.79L1572.98 791.79" stroke="rgba(0, 0, 0, 1)" stroke-width="1.5"></path><circle r="5" cx="-55.49" cy="497.16" fill="rgba(0, 0, 0, 1)"></circle><circle r="5" cx="-91.33" cy="674.77" fill="rgba(0, 0, 0, 1)"></circle><circle r="5" cx="-48.2" cy="794.79" fill="rgba(0, 0, 0, 1)"></circle><circle r="5" cx="55.37" cy="538.1" fill="rgba(0, 0, 0, 1)"></circle><circle r="5" cx="72.01" cy="709.59" fill="rgba(0, 0, 0, 1)"></circle><circle r="5" cx="75.55" cy="852.46" fill="rgba(0, 0, 0, 1)"></circle><circle r="5" cx="230.15" cy="406.67" fill="rgba(0, 0, 0, 1)"></circle><circle r="5" cx="198.4" cy="502.41" fill="rgba(0, 0, 0, 1)"></circle><circle r="5" cx="207.52" cy="690.04" fill="rgba(0, 0, 0, 1)"></circle><circle r="5" cx="250.11" cy="817.33" fill="rgba(0, 0, 0, 1)"></circle><circle r="5" cx="396.94" cy="550.72" fill="rgba(0, 0, 0, 1)"></circle><circle r="5" cx="346.22" cy="707.59" fill="rgba(0, 0, 0, 1)"></circle><circle r="5" cx="371.12" cy="859.49" fill="rgba(0, 0, 0, 1)"></circle><circle r="5" cx="523.16" cy="366.24" fill="rgba(0, 0, 0, 1)"></circle><circle r="5" cx="549.73" cy="497.65" fill="rgba(0, 0, 0, 1)"></circle><circle r="5" cx="529.31" cy="687.61" fill="rgba(0, 0, 0, 1)"></circle><circle r="5" cx="511.83" cy="798.17" fill="rgba(0, 0, 0, 1)"></circle><circle r="5" cx="656.08" cy="378.16" fill="rgba(0, 0, 0, 1)"></circle><circle r="5" cx="660.69" cy="512.35" fill="rgba(0, 0, 0, 1)"></circle><circle r="5" cx="686.33" cy="670.35" fill="rgba(0, 0, 0, 1)"></circle><circle r="5" cx="662.61" cy="851.63" fill="rgba(0, 0, 0, 1)"></circle><circle r="5" cx="857.74" cy="74.96" fill="rgba(0, 0, 0, 1)"></circle><circle r="5" cx="850.47" cy="203.63" fill="rgba(0, 0, 0, 1)"></circle><circle r="5" cx="792.26" cy="405.88" fill="rgba(0, 0, 0, 1)"></circle><circle r="5" cx="821.8" cy="550.49" fill="rgba(0, 0, 0, 1)"></circle><circle r="5" cx="809.79" cy="705.59" fill="rgba(0, 0, 0, 1)"></circle><circle r="5" cx="797.65" cy="842.08" fill="rgba(0, 0, 0, 1)"></circle><circle r="5" cx="957.76" cy="-103.19" fill="rgba(0, 0, 0, 1)"></circle><circle r="5" cx="994.3" cy="63.4" fill="rgba(0, 0, 0, 1)"></circle><circle r="5" cx="961.07" cy="197.63" fill="rgba(0, 0, 0, 1)"></circle><circle r="5" cx="978.92" cy="351.14" fill="rgba(0, 0, 0, 1)"></circle><circle r="5" cx="979.22" cy="552" fill="rgba(0, 0, 0, 1)"></circle><circle r="5" cx="1010.82" cy="709.66" fill="rgba(0, 0, 0, 1)"></circle><circle r="5" cx="959.44" cy="811.99" fill="rgba(0, 0, 0, 1)"></circle><circle r="5" cx="1152.1" cy="-44.48" fill="rgba(0, 0, 0, 1)"></circle><circle r="5" cx="1139.57" cy="65.16" fill="rgba(0, 0, 0, 1)"></circle><circle r="5" cx="1096.25" cy="245.66" fill="rgba(0, 0, 0, 1)"></circle><circle r="5" cx="1136.4" cy="353.89" fill="rgba(0, 0, 0, 1)"></circle><circle r="5" cx="1146.95" cy="500" fill="rgba(0, 0, 0, 1)"></circle><circle r="5" cx="1092.96" cy="669.54" fill="rgba(0, 0, 0, 1)"></circle><circle r="5" cx="1142.62" cy="827.29" fill="rgba(0, 0, 0, 1)"></circle><circle r="5" cx="1309.2" cy="-110.29" fill="rgba(0, 0, 0, 1)"></circle><circle r="5" cx="1307.85" cy="79.78" fill="rgba(0, 0, 0, 1)"></circle><circle r="5" cx="1311.42" cy="218.72" fill="rgba(0, 0, 0, 1)"></circle><circle r="5" cx="1259.32" cy="356.54" fill="rgba(0, 0, 0, 1)"></circle><circle r="5" cx="1303.22" cy="705.3" fill="rgba(0, 0, 0, 1)"></circle><circle r="5" cx="1409.99" cy="-98.79" fill="rgba(0, 0, 0, 1)"></circle><circle r="5" cx="1398.73" cy="94.64" fill="rgba(0, 0, 0, 1)"></circle><circle r="5" cx="1444.41" cy="208.44" fill="rgba(0, 0, 0, 1)"></circle><circle r="5" cx="1442.81" cy="500.15" fill="rgba(0, 0, 0, 1)"></circle><circle r="5" cx="1421.58" cy="659.65" fill="rgba(0, 0, 0, 1)"></circle><circle r="5" cx="1446.56" cy="820.18" fill="rgba(0, 0, 0, 1)"></circle><circle r="5" cx="1541.56" cy="-45.58" fill="rgba(0, 0, 0, 1)"></circle><circle r="5" cx="1567.83" cy="93.3" fill="rgba(0, 0, 0, 1)"></circle><circle r="5" cx="1545.62" cy="213.14" fill="rgba(0, 0, 0, 1)"></circle><circle r="5" cx="1562.67" cy="380.88" fill="rgba(0, 0, 0, 1)"></circle><circle r="5" cx="1600.06" cy="544.03" fill="rgba(0, 0, 0, 1)"></circle><circle r="5" cx="1572.98" cy="791.79" fill="rgba(0, 0, 0, 1)"></circle><path d="M-87.73 699.37L-87.73 699.37" stroke="hsl(228.70000000000005, 89.2%, 42.6%)" stroke-width="1.5"></path><path d="M-87.73 699.37L-68.21 802.41" stroke="hsl(228.70000000000005, 89.2%, 42.6%)" stroke-width="1.5"></path><path d="M-87.73 699.37L97.47 661.57" stroke="hsl(228.70000000000005, 89.2%, 42.6%)" stroke-width="1.5"></path><path d="M-87.73 699.37L107.46 860.63" stroke="hsl(228.70000000000005, 89.2%, 42.6%)" stroke-width="1.5"></path><path d="M-87.73 699.37L192.05 686.53" stroke="hsl(228.70000000000005, 89.2%, 42.6%)" stroke-width="1.5"></path><path d="M-87.73 699.37L379.85 693.95" stroke="hsl(228.70000000000005, 89.2%, 42.6%)" stroke-width="1.5"></path><path d="M192.05 686.53L192.05 686.53" stroke="hsl(228.70000000000005, 89.2%, 42.6%)" stroke-width="1.5"></path><path d="M192.05 686.53L97.47 661.57" stroke="hsl(228.70000000000005, 89.2%, 42.6%)" stroke-width="1.5"></path><path d="M192.05 686.53L379.85 693.95" stroke="hsl(228.70000000000005, 89.2%, 42.6%)" stroke-width="1.5"></path><path d="M192.05 686.53L107.46 860.63" stroke="hsl(228.70000000000005, 89.2%, 42.6%)" stroke-width="1.5"></path><path d="M192.05 686.53L360.14 851.22" stroke="hsl(228.70000000000005, 89.2%, 42.6%)" stroke-width="1.5"></path><path d="M192.05 686.53L407.25 540.83" stroke="hsl(228.70000000000005, 89.2%, 42.6%)" stroke-width="1.5"></path><path d="M360.14 851.22L360.14 851.22" stroke="hsl(228.70000000000005, 89.2%, 42.6%)" stroke-width="1.5"></path><path d="M360.14 851.22L379.85 693.95" stroke="hsl(228.70000000000005, 89.2%, 42.6%)" stroke-width="1.5"></path><path d="M360.14 851.22L529.27 855.66" stroke="hsl(228.70000000000005, 89.2%, 42.6%)" stroke-width="1.5"></path><path d="M360.14 851.22L517.78 694.94" stroke="hsl(228.70000000000005, 89.2%, 42.6%)" stroke-width="1.5"></path><path d="M669.39 675.85L669.39 675.85" stroke="hsl(228.70000000000005, 89.2%, 42.6%)" stroke-width="1.5"></path><path d="M669.39 675.85L649 557.72" stroke="hsl(228.70000000000005, 89.2%, 42.6%)" stroke-width="1.5"></path><path d="M669.39 675.85L797.42 687.76" stroke="hsl(228.70000000000005, 89.2%, 42.6%)" stroke-width="1.5"></path><path d="M669.39 675.85L669.38 817.45" stroke="hsl(228.70000000000005, 89.2%, 42.6%)" stroke-width="1.5"></path><path d="M669.39 675.85L517.78 694.94" stroke="hsl(228.70000000000005, 89.2%, 42.6%)" stroke-width="1.5"></path><path d="M669.39 675.85L792.29 846.32" stroke="hsl(228.70000000000005, 89.2%, 42.6%)" stroke-width="1.5"></path><path d="M669.39 675.85L827.62 536.24" stroke="hsl(228.70000000000005, 89.2%, 42.6%)" stroke-width="1.5"></path><path d="M669.38 817.45L669.38 817.45" stroke="hsl(228.70000000000005, 89.2%, 42.6%)" stroke-width="1.5"></path><path d="M669.38 817.45L792.29 846.32" stroke="hsl(228.70000000000005, 89.2%, 42.6%)" stroke-width="1.5"></path><path d="M669.38 817.45L529.27 855.66" stroke="hsl(228.70000000000005, 89.2%, 42.6%)" stroke-width="1.5"></path><path d="M669.38 817.45L797.42 687.76" stroke="hsl(228.70000000000005, 89.2%, 42.6%)" stroke-width="1.5"></path><path d="M669.38 817.45L517.78 694.94" stroke="hsl(228.70000000000005, 89.2%, 42.6%)" stroke-width="1.5"></path><path d="M669.38 817.45L649 557.72" stroke="hsl(228.70000000000005, 89.2%, 42.6%)" stroke-width="1.5"></path><path d="M940.31 562.31L940.31 562.31" stroke="hsl(228.70000000000005, 89.2%, 42.6%)" stroke-width="1.5"></path><path d="M940.31 562.31L937.53 644.78" stroke="hsl(228.70000000000005, 89.2%, 42.6%)" stroke-width="1.5"></path><path d="M940.31 562.31L827.62 536.24" stroke="hsl(228.70000000000005, 89.2%, 42.6%)" stroke-width="1.5"></path><path d="M940.31 562.31L797.42 687.76" stroke="hsl(228.70000000000005, 89.2%, 42.6%)" stroke-width="1.5"></path><path d="M1146.72 234.45L1146.72 234.45" stroke="hsl(228.70000000000005, 89.2%, 42.6%)" stroke-width="1.5"></path><path d="M1146.72 234.45L1154.73 353.04" stroke="hsl(228.70000000000005, 89.2%, 42.6%)" stroke-width="1.5"></path><path d="M1146.72 234.45L1259.23 346.84" stroke="hsl(228.70000000000005, 89.2%, 42.6%)" stroke-width="1.5"></path><path d="M1146.72 234.45L1309.17 209.73" stroke="hsl(228.70000000000005, 89.2%, 42.6%)" stroke-width="1.5"></path><path d="M1146.72 234.45L1296.39 111.96" stroke="hsl(228.70000000000005, 89.2%, 42.6%)" stroke-width="1.5"></path><path d="M1146.72 234.45L952.97 359.85" stroke="hsl(228.70000000000005, 89.2%, 42.6%)" stroke-width="1.5"></path><path d="M1139.45 679.32L1139.45 679.32" stroke="hsl(228.70000000000005, 89.2%, 42.6%)" stroke-width="1.5"></path><path d="M1139.45 679.32L1255.57 693.32" stroke="hsl(228.70000000000005, 89.2%, 42.6%)" stroke-width="1.5"></path><path d="M1139.45 679.32L1149.49 809.37" stroke="hsl(228.70000000000005, 89.2%, 42.6%)" stroke-width="1.5"></path><path d="M1139.45 679.32L1149.48 513.9" stroke="hsl(228.70000000000005, 89.2%, 42.6%)" stroke-width="1.5"></path><path d="M1139.45 679.32L1010.02 835.95" stroke="hsl(228.70000000000005, 89.2%, 42.6%)" stroke-width="1.5"></path><path d="M1149.49 809.37L1149.49 809.37" stroke="hsl(228.70000000000005, 89.2%, 42.6%)" stroke-width="1.5"></path><path d="M1149.49 809.37L1010.02 835.95" stroke="hsl(228.70000000000005, 89.2%, 42.6%)" stroke-width="1.5"></path><path d="M1247.57 493.28L1247.57 493.28" stroke="hsl(228.70000000000005, 89.2%, 42.6%)" stroke-width="1.5"></path><path d="M1247.57 493.28L1149.48 513.9" stroke="hsl(228.70000000000005, 89.2%, 42.6%)" stroke-width="1.5"></path><path d="M1247.57 493.28L1259.23 346.84" stroke="hsl(228.70000000000005, 89.2%, 42.6%)" stroke-width="1.5"></path><path d="M1247.57 493.28L1154.73 353.04" stroke="hsl(228.70000000000005, 89.2%, 42.6%)" stroke-width="1.5"></path><path d="M1247.57 493.28L1255.57 693.32" stroke="hsl(228.70000000000005, 89.2%, 42.6%)" stroke-width="1.5"></path><path d="M1247.57 493.28L1451.48 503.53" stroke="hsl(228.70000000000005, 89.2%, 42.6%)" stroke-width="1.5"></path><path d="M1255.57 693.32L1255.57 693.32" stroke="hsl(228.70000000000005, 89.2%, 42.6%)" stroke-width="1.5"></path><path d="M1255.57 693.32L1303.32 840.48" stroke="hsl(228.70000000000005, 89.2%, 42.6%)" stroke-width="1.5"></path><path d="M1255.57 693.32L1411.14 711.96" stroke="hsl(228.70000000000005, 89.2%, 42.6%)" stroke-width="1.5"></path><path d="M1255.57 693.32L1149.49 809.37" stroke="hsl(228.70000000000005, 89.2%, 42.6%)" stroke-width="1.5"></path><path d="M1460.77 59.14L1460.77 59.14" stroke="hsl(228.70000000000005, 89.2%, 42.6%)" stroke-width="1.5"></path><path d="M1460.77 59.14L1603.56 81.62" stroke="hsl(228.70000000000005, 89.2%, 42.6%)" stroke-width="1.5"></path><path d="M1460.77 59.14L1437.17 -104.02" stroke="hsl(228.70000000000005, 89.2%, 42.6%)" stroke-width="1.5"></path><path d="M1460.77 59.14L1296.39 111.96" stroke="hsl(228.70000000000005, 89.2%, 42.6%)" stroke-width="1.5"></path><path d="M1460.77 59.14L1569.68 200.54" stroke="hsl(228.70000000000005, 89.2%, 42.6%)" stroke-width="1.5"></path><path d="M-68.21 802.41L-68.21 802.41" stroke="hsl(228.70000000000005, 89.2%, 42.6%)" stroke-width="1.5"></path><path d="M97.47 661.57L97.47 661.57" stroke="hsl(228.70000000000005, 89.2%, 42.6%)" stroke-width="1.5"></path><path d="M107.46 860.63L107.46 860.63" stroke="hsl(228.70000000000005, 89.2%, 42.6%)" stroke-width="1.5"></path><path d="M107.46 860.63L-68.21 802.41" stroke="hsl(228.70000000000005, 89.2%, 42.6%)" stroke-width="1.5"></path><path d="M407.25 540.83L407.25 540.83" stroke="hsl(228.70000000000005, 89.2%, 42.6%)" stroke-width="1.5"></path><path d="M407.25 540.83L538.25 505.42" stroke="hsl(228.70000000000005, 89.2%, 42.6%)" stroke-width="1.5"></path><path d="M407.25 540.83L379.85 693.95" stroke="hsl(228.70000000000005, 89.2%, 42.6%)" stroke-width="1.5"></path><path d="M379.85 693.95L379.85 693.95" stroke="hsl(228.70000000000005, 89.2%, 42.6%)" stroke-width="1.5"></path><path d="M379.85 693.95L517.78 694.94" stroke="hsl(228.70000000000005, 89.2%, 42.6%)" stroke-width="1.5"></path><path d="M379.85 693.95L529.27 855.66" stroke="hsl(228.70000000000005, 89.2%, 42.6%)" stroke-width="1.5"></path><path d="M379.85 693.95L538.25 505.42" stroke="hsl(228.70000000000005, 89.2%, 42.6%)" stroke-width="1.5"></path><path d="M538.25 505.42L538.25 505.42" stroke="hsl(228.70000000000005, 89.2%, 42.6%)" stroke-width="1.5"></path><path d="M538.25 505.42L649 557.72" stroke="hsl(228.70000000000005, 89.2%, 42.6%)" stroke-width="1.5"></path><path d="M538.25 505.42L517.78 694.94" stroke="hsl(228.70000000000005, 89.2%, 42.6%)" stroke-width="1.5"></path><path d="M538.25 505.42L669.39 675.85" stroke="hsl(228.70000000000005, 89.2%, 42.6%)" stroke-width="1.5"></path><path d="M517.78 694.94L517.78 694.94" stroke="hsl(228.70000000000005, 89.2%, 42.6%)" stroke-width="1.5"></path><path d="M517.78 694.94L529.27 855.66" stroke="hsl(228.70000000000005, 89.2%, 42.6%)" stroke-width="1.5"></path><path d="M517.78 694.94L407.25 540.83" stroke="hsl(228.70000000000005, 89.2%, 42.6%)" stroke-width="1.5"></path><path d="M529.27 855.66L529.27 855.66" stroke="hsl(228.70000000000005, 89.2%, 42.6%)" stroke-width="1.5"></path><path d="M649 557.72L649 557.72" stroke="hsl(228.70000000000005, 89.2%, 42.6%)" stroke-width="1.5"></path><path d="M649 557.72L827.62 536.24" stroke="hsl(228.70000000000005, 89.2%, 42.6%)" stroke-width="1.5"></path><path d="M827.62 536.24L827.62 536.24" stroke="hsl(228.70000000000005, 89.2%, 42.6%)" stroke-width="1.5"></path><path d="M827.62 536.24L937.53 644.78" stroke="hsl(228.70000000000005, 89.2%, 42.6%)" stroke-width="1.5"></path><path d="M827.62 536.24L797.42 687.76" stroke="hsl(228.70000000000005, 89.2%, 42.6%)" stroke-width="1.5"></path><path d="M827.62 536.24L952.97 359.85" stroke="hsl(228.70000000000005, 89.2%, 42.6%)" stroke-width="1.5"></path><path d="M797.42 687.76L797.42 687.76" stroke="hsl(228.70000000000005, 89.2%, 42.6%)" stroke-width="1.5"></path><path d="M797.42 687.76L937.53 644.78" stroke="hsl(228.70000000000005, 89.2%, 42.6%)" stroke-width="1.5"></path><path d="M792.29 846.32L792.29 846.32" stroke="hsl(228.70000000000005, 89.2%, 42.6%)" stroke-width="1.5"></path><path d="M792.29 846.32L797.42 687.76" stroke="hsl(228.70000000000005, 89.2%, 42.6%)" stroke-width="1.5"></path><path d="M952.97 359.85L952.97 359.85" stroke="hsl(228.70000000000005, 89.2%, 42.6%)" stroke-width="1.5"></path><path d="M952.97 359.85L1154.73 353.04" stroke="hsl(228.70000000000005, 89.2%, 42.6%)" stroke-width="1.5"></path><path d="M952.97 359.85L940.31 562.31" stroke="hsl(228.70000000000005, 89.2%, 42.6%)" stroke-width="1.5"></path><path d="M937.53 644.78L937.53 644.78" stroke="hsl(228.70000000000005, 89.2%, 42.6%)" stroke-width="1.5"></path><path d="M937.53 644.78L1010.02 835.95" stroke="hsl(228.70000000000005, 89.2%, 42.6%)" stroke-width="1.5"></path><path d="M937.53 644.78L1139.45 679.32" stroke="hsl(228.70000000000005, 89.2%, 42.6%)" stroke-width="1.5"></path><path d="M1010.02 835.95L1010.02 835.95" stroke="hsl(228.70000000000005, 89.2%, 42.6%)" stroke-width="1.5"></path><path d="M1010.02 835.95L792.29 846.32" stroke="hsl(228.70000000000005, 89.2%, 42.6%)" stroke-width="1.5"></path><path d="M1154.73 353.04L1154.73 353.04" stroke="hsl(228.70000000000005, 89.2%, 42.6%)" stroke-width="1.5"></path><path d="M1154.73 353.04L1259.23 346.84" stroke="hsl(228.70000000000005, 89.2%, 42.6%)" stroke-width="1.5"></path><path d="M1149.48 513.9L1149.48 513.9" stroke="hsl(228.70000000000005, 89.2%, 42.6%)" stroke-width="1.5"></path><path d="M1149.48 513.9L1154.73 353.04" stroke="hsl(228.70000000000005, 89.2%, 42.6%)" stroke-width="1.5"></path><path d="M1149.48 513.9L1259.23 346.84" stroke="hsl(228.70000000000005, 89.2%, 42.6%)" stroke-width="1.5"></path><path d="M1296.39 111.96L1296.39 111.96" stroke="hsl(228.70000000000005, 89.2%, 42.6%)" stroke-width="1.5"></path><path d="M1296.39 111.96L1309.17 209.73" stroke="hsl(228.70000000000005, 89.2%, 42.6%)" stroke-width="1.5"></path><path d="M1309.17 209.73L1309.17 209.73" stroke="hsl(228.70000000000005, 89.2%, 42.6%)" stroke-width="1.5"></path><path d="M1309.17 209.73L1259.23 346.84" stroke="hsl(228.70000000000005, 89.2%, 42.6%)" stroke-width="1.5"></path><path d="M1309.17 209.73L1460.43 241.93" stroke="hsl(228.70000000000005, 89.2%, 42.6%)" stroke-width="1.5"></path><path d="M1259.23 346.84L1259.23 346.84" stroke="hsl(228.70000000000005, 89.2%, 42.6%)" stroke-width="1.5"></path><path d="M1303.32 840.48L1303.32 840.48" stroke="hsl(228.70000000000005, 89.2%, 42.6%)" stroke-width="1.5"></path><path d="M1303.32 840.48L1389.79 838.4" stroke="hsl(228.70000000000005, 89.2%, 42.6%)" stroke-width="1.5"></path><path d="M1437.17 -104.02L1437.17 -104.02" stroke="hsl(228.70000000000005, 89.2%, 42.6%)" stroke-width="1.5"></path><path d="M1437.17 -104.02L1601.29 -86.03" stroke="hsl(228.70000000000005, 89.2%, 42.6%)" stroke-width="1.5"></path><path d="M1437.17 -104.02L1603.56 81.62" stroke="hsl(228.70000000000005, 89.2%, 42.6%)" stroke-width="1.5"></path><path d="M1460.43 241.93L1460.43 241.93" stroke="hsl(228.70000000000005, 89.2%, 42.6%)" stroke-width="1.5"></path><path d="M1460.43 241.93L1569.68 200.54" stroke="hsl(228.70000000000005, 89.2%, 42.6%)" stroke-width="1.5"></path><path d="M1460.43 241.93L1541.71 404.21" stroke="hsl(228.70000000000005, 89.2%, 42.6%)" stroke-width="1.5"></path><path d="M1460.43 241.93L1460.77 59.14" stroke="hsl(228.70000000000005, 89.2%, 42.6%)" stroke-width="1.5"></path><path d="M1451.48 503.53L1451.48 503.53" stroke="hsl(228.70000000000005, 89.2%, 42.6%)" stroke-width="1.5"></path><path d="M1451.48 503.53L1584.08 490.39" stroke="hsl(228.70000000000005, 89.2%, 42.6%)" stroke-width="1.5"></path><path d="M1451.48 503.53L1541.71 404.21" stroke="hsl(228.70000000000005, 89.2%, 42.6%)" stroke-width="1.5"></path><path d="M1451.48 503.53L1580.72 640.1" stroke="hsl(228.70000000000005, 89.2%, 42.6%)" stroke-width="1.5"></path><path d="M1451.48 503.53L1411.14 711.96" stroke="hsl(228.70000000000005, 89.2%, 42.6%)" stroke-width="1.5"></path><path d="M1451.48 503.53L1259.23 346.84" stroke="hsl(228.70000000000005, 89.2%, 42.6%)" stroke-width="1.5"></path><path d="M1411.14 711.96L1411.14 711.96" stroke="hsl(228.70000000000005, 89.2%, 42.6%)" stroke-width="1.5"></path><path d="M1411.14 711.96L1389.79 838.4" stroke="hsl(228.70000000000005, 89.2%, 42.6%)" stroke-width="1.5"></path><path d="M1411.14 711.96L1545.38 810.1" stroke="hsl(228.70000000000005, 89.2%, 42.6%)" stroke-width="1.5"></path><path d="M1389.79 838.4L1389.79 838.4" stroke="hsl(228.70000000000005, 89.2%, 42.6%)" stroke-width="1.5"></path><path d="M1601.29 -86.03L1601.29 -86.03" stroke="hsl(228.70000000000005, 89.2%, 42.6%)" stroke-width="1.5"></path><path d="M1601.29 -86.03L1603.56 81.62" stroke="hsl(228.70000000000005, 89.2%, 42.6%)" stroke-width="1.5"></path><path d="M1601.29 -86.03L1460.77 59.14" stroke="hsl(228.70000000000005, 89.2%, 42.6%)" stroke-width="1.5"></path><path d="M1601.29 -86.03L1569.68 200.54" stroke="hsl(228.70000000000005, 89.2%, 42.6%)" stroke-width="1.5"></path><path d="M1601.29 -86.03L1460.43 241.93" stroke="hsl(228.70000000000005, 89.2%, 42.6%)" stroke-width="1.5"></path><path d="M1603.56 81.62L1603.56 81.62" stroke="hsl(228.70000000000005, 89.2%, 42.6%)" stroke-width="1.5"></path><path d="M1603.56 81.62L1569.68 200.54" stroke="hsl(228.70000000000005, 89.2%, 42.6%)" stroke-width="1.5"></path><path d="M1569.68 200.54L1569.68 200.54" stroke="hsl(228.70000000000005, 89.2%, 42.6%)" stroke-width="1.5"></path><path d="M1541.71 404.21L1541.71 404.21" stroke="hsl(228.70000000000005, 89.2%, 42.6%)" stroke-width="1.5"></path><path d="M1541.71 404.21L1584.08 490.39" stroke="hsl(228.70000000000005, 89.2%, 42.6%)" stroke-width="1.5"></path><path d="M1584.08 490.39L1584.08 490.39" stroke="hsl(228.70000000000005, 89.2%, 42.6%)" stroke-width="1.5"></path><path d="M1580.72 640.1L1580.72 640.1" stroke="hsl(228.70000000000005, 89.2%, 42.6%)" stroke-width="1.5"></path><path d="M1580.72 640.1L1584.08 490.39" stroke="hsl(228.70000000000005, 89.2%, 42.6%)" stroke-width="1.5"></path><path d="M1580.72 640.1L1545.38 810.1" stroke="hsl(228.70000000000005, 89.2%, 42.6%)" stroke-width="1.5"></path><path d="M1580.72 640.1L1411.14 711.96" stroke="hsl(228.70000000000005, 89.2%, 42.6%)" stroke-width="1.5"></path><path d="M1580.72 640.1L1541.71 404.21" stroke="hsl(228.70000000000005, 89.2%, 42.6%)" stroke-width="1.5"></path><path d="M1580.72 640.1L1389.79 838.4" stroke="hsl(228.70000000000005, 89.2%, 42.6%)" stroke-width="1.5"></path><path d="M1545.38 810.1L1545.38 810.1" stroke="hsl(228.70000000000005, 89.2%, 42.6%)" stroke-width="1.5"></path><path d="M1545.38 810.1L1389.79 838.4" stroke="hsl(228.70000000000005, 89.2%, 42.6%)" stroke-width="1.5"></path><path d="M1545.38 810.1L1303.32 840.48" stroke="hsl(228.70000000000005, 89.2%, 42.6%)" stroke-width="1.5"></path><circle r="25" cx="-87.73" cy="699.37" fill="url(&quot;#SvgjsRadialGradient1019&quot;)"></circle><circle r="25" cx="192.05" cy="686.53" fill="url(&quot;#SvgjsRadialGradient1019&quot;)"></circle><circle r="25" cx="360.14" cy="851.22" fill="url(&quot;#SvgjsRadialGradient1019&quot;)"></circle><circle r="25" cx="669.39" cy="675.85" fill="url(&quot;#SvgjsRadialGradient1019&quot;)"></circle><circle r="25" cx="669.38" cy="817.45" fill="url(&quot;#SvgjsRadialGradient1019&quot;)"></circle><circle r="25" cx="940.31" cy="562.31" fill="url(&quot;#SvgjsRadialGradient1019&quot;)"></circle><circle r="25" cx="1146.72" cy="234.45" fill="url(&quot;#SvgjsRadialGradient1019&quot;)"></circle><circle r="25" cx="1139.45" cy="679.32" fill="url(&quot;#SvgjsRadialGradient1019&quot;)"></circle><circle r="25" cx="1149.49" cy="809.37" fill="url(&quot;#SvgjsRadialGradient1019&quot;)"></circle><circle r="25" cx="1247.57" cy="493.28" fill="url(&quot;#SvgjsRadialGradient1019&quot;)"></circle><circle r="25" cx="1255.57" cy="693.32" fill="url(&quot;#SvgjsRadialGradient1019&quot;)"></circle><circle r="25" cx="1460.77" cy="59.14" fill="url(&quot;#SvgjsRadialGradient1019&quot;)"></circle><circle r="5" cx="-68.21" cy="802.41" fill="#8492cf"></circle><circle r="5" cx="97.47" cy="661.57" fill="#8492cf"></circle><circle r="5" cx="107.46" cy="860.63" fill="#8492cf"></circle><circle r="5" cx="407.25" cy="540.83" fill="#8492cf"></circle><circle r="5" cx="379.85" cy="693.95" fill="#8492cf"></circle><circle r="5" cx="538.25" cy="505.42" fill="#8492cf"></circle><circle r="5" cx="517.78" cy="694.94" fill="#8492cf"></circle><circle r="5" cx="529.27" cy="855.66" fill="#8492cf"></circle><circle r="5" cx="649" cy="557.72" fill="#8492cf"></circle><circle r="5" cx="827.62" cy="536.24" fill="#8492cf"></circle><circle r="5" cx="797.42" cy="687.76" fill="#8492cf"></circle><circle r="5" cx="792.29" cy="846.32" fill="#8492cf"></circle><circle r="5" cx="952.97" cy="359.85" fill="#8492cf"></circle><circle r="5" cx="937.53" cy="644.78" fill="#8492cf"></circle><circle r="5" cx="1010.02" cy="835.95" fill="#8492cf"></circle><circle r="5" cx="1154.73" cy="353.04" fill="#8492cf"></circle><circle r="5" cx="1149.48" cy="513.9" fill="#8492cf"></circle><circle r="5" cx="1296.39" cy="111.96" fill="#8492cf"></circle><circle r="5" cx="1309.17" cy="209.73" fill="#8492cf"></circle><circle r="5" cx="1259.23" cy="346.84" fill="#8492cf"></circle><circle r="5" cx="1303.32" cy="840.48" fill="#8492cf"></circle><circle r="5" cx="1437.17" cy="-104.02" fill="#8492cf"></circle><circle r="5" cx="1460.43" cy="241.93" fill="#8492cf"></circle><circle r="5" cx="1451.48" cy="503.53" fill="#8492cf"></circle><circle r="5" cx="1411.14" cy="711.96" fill="#8492cf"></circle><circle r="5" cx="1389.79" cy="838.4" fill="#8492cf"></circle><circle r="5" cx="1601.29" cy="-86.03" fill="#8492cf"></circle><circle r="5" cx="1603.56" cy="81.62" fill="#8492cf"></circle><circle r="5" cx="1569.68" cy="200.54" fill="#8492cf"></circle><circle r="5" cx="1541.71" cy="404.21" fill="#8492cf"></circle><circle r="5" cx="1584.08" cy="490.39" fill="#8492cf"></circle><circle r="5" cx="1580.72" cy="640.1" fill="#8492cf"></circle><circle r="5" cx="1545.38" cy="810.1" fill="#8492cf"></circle></g><defs><mask id="SvgjsMask1018"><rect width="1440" height="700" fill="#ffffff"></rect></mask><radialGradient id="SvgjsRadialGradient1019"><stop stop-color="#ffffff" offset="0.1"></stop><stop stop-color="rgba(9, 37, 158, 1)" offset="0.2"></stop><stop stop-color="rgba(9, 37, 158, 0)" offset="1"></stop></radialGradient></defs></svg>