<?xml version="1.0" standalone="no"?>
<!DOCTYPE svg PUBLIC "-//W3C//DTD SVG 20010904//EN"
 "http://www.w3.org/TR/2001/REC-SVG-20010904/DTD/svg10.dtd">
<svg version="1.0" xmlns="http://www.w3.org/2000/svg"
 width="300.000000pt" height="300.000000pt" viewBox="0 0 300.000000 300.000000"
 preserveAspectRatio="xMidYMid meet">
<metadata>
Created by potrace 1.10, written by Peter Selinger 2001-2011
</metadata>
<g transform="translate(0.000000,300.000000) scale(0.100000,-0.100000)"
fill="#000000" stroke="none">
<path d="M1350 2987 c-3 -2 -30 -7 -60 -11 -80 -8 -213 -42 -310 -78 -459
-170 -807 -556 -926 -1027 -36 -139 -39 -175 -39 -396 1 -184 3 -209 28 -310
142 -570 549 -981 1115 -1122 99 -25 122 -27 322 -28 234 0 263 3 390 35 242
62 469 186 652 359 207 195 352 439 424 711 36 138 39 173 39 400 0 198 -1
209 -33 331 -48 187 -107 321 -207 474 -228 344 -572 567 -1005 650 -43 8
-383 19 -390 12z m440 -62 c291 -64 531 -195 735 -399 222 -222 356 -481 411
-789 22 -126 22 -353 -1 -482 -152 -872 -1032 -1410 -1873 -1144 -499 158
-878 578 -989 1099 -26 121 -26 460 0 577 133 603 599 1049 1197 1148 114 19
416 13 520 -10z"/>
<path d="M1617 2892 c-47 -52 -18 -132 48 -132 33 0 54 15 40 28 -4 4 -10 1
-12 -5 -6 -16 -45 -17 -61 -1 -19 19 -15 82 6 101 24 22 48 22 61 0 11 -21 26
-11 18 12 -9 22 -79 20 -100 -3z"/>
<path d="M1211 2828 c-7 -35 -14 -71 -17 -80 -4 -12 -1 -16 9 -13 7 3 13 15
13 27 -1 31 50 44 67 17 6 -10 21 -19 31 -19 19 0 19 1 -1 23 -11 12 -33 41
-48 65 -15 23 -31 42 -35 42 -4 0 -13 -28 -19 -62z m49 -14 c0 -8 -9 -14 -20
-14 -21 0 -24 8 -14 34 5 13 9 14 20 5 8 -6 14 -18 14 -25z"/>
<path d="M1766 2820 c-29 -44 -41 -70 -32 -70 7 0 16 9 19 20 4 17 10 20 34
14 32 -8 44 -21 36 -41 -3 -7 2 -13 11 -13 9 0 16 1 16 3 0 13 -29 149 -32
153 -3 2 -26 -27 -52 -66z m48 -28 c-1 -2 -12 -1 -23 3 -20 6 -20 7 -3 33 l17
26 6 -29 c3 -17 4 -32 3 -33z"/>
<path d="M1440 2867 c0 -8 -8 -18 -17 -20 -17 -4 -17 -5 -1 -6 14 -1 17 -10
16 -44 l0 -44 -97 -13 c-282 -38 -519 -156 -722 -359 -241 -241 -369 -543
-369 -873 0 -494 261 -914 705 -1136 167 -83 342 -122 550 -122 339 0 639 125
880 365 108 108 179 209 245 348 93 196 126 361 117 592 -13 322 -126 580
-357 816 -231 236 -492 355 -821 377 l-102 7 -4 39 c-2 22 0 42 5 45 5 3 1 15
-9 25 -16 17 -19 17 -19 3z m107 -151 c20 -18 44 -84 33 -91 -5 -3 -30 0 -55
6 -89 22 -223 -14 -254 -68 -8 -15 -12 -15 -25 -4 -10 9 -14 21 -10 34 5 16 3
19 -10 14 -19 -7 -46 1 -46 14 0 13 62 68 76 69 6 0 17 -7 24 -16 8 -8 21 -19
31 -25 15 -8 21 -4 32 23 17 41 34 55 72 60 44 6 118 -3 132 -16z m71 -22 c-9
-9 -24 -14 -32 -11 -27 11 -17 27 16 27 30 0 31 -1 16 -16z m62 -7 c0 -7 14
-21 30 -30 31 -19 39 -36 18 -39 -7 0 -17 -2 -23 -3 -5 -2 -16 -3 -24 -4 -10
-1 -11 -4 -2 -15 9 -10 8 -16 -4 -26 -13 -11 -19 -10 -38 7 -40 36 -47 37 -47
2 0 -26 3 -31 20 -26 11 3 23 1 26 -5 14 -22 94 23 94 52 0 6 5 10 10 10 18 0
11 33 -12 58 l-23 25 49 -8 c113 -16 295 -93 429 -182 139 -92 300 -272 392
-438 187 -339 182 -806 -11 -1153 l-35 -62 -44 30 c-59 40 -111 103 -143 172
-35 74 -53 75 -79 3 -23 -62 -17 -73 11 -20 11 19 21 34 22 32 2 -2 -6 -34
-17 -71 -24 -78 -20 -98 5 -31 10 25 23 45 29 45 7 0 23 -17 37 -38 37 -55
109 -121 143 -130 l29 -7 -48 -65 c-204 -278 -549 -464 -900 -485 -339 -21
-684 108 -922 345 -184 184 -305 413 -349 665 -21 123 -13 378 16 485 47 178
113 314 216 451 144 192 356 345 578 419 72 23 90 22 63 -5 -9 -9 -16 -20 -16
-25 0 -20 61 -69 98 -79 38 -11 58 -33 46 -52 -3 -5 -1 -9 4 -9 14 0 21 -49 9
-57 -6 -3 -7 -1 -3 5 4 7 2 12 -3 12 -6 0 -11 -6 -11 -14 0 -10 -16 -17 -47
-21 -62 -9 -93 -28 -86 -54 2 -10 0 -22 -6 -25 -12 -8 -15 -65 -3 -82 11 -17
52 -28 99 -25 32 2 50 10 78 37 45 42 29 45 -19 3 -28 -24 -39 -28 -54 -20
-13 7 -22 7 -30 -1 -6 -6 -22 -8 -36 -4 -31 8 -45 48 -25 73 8 9 13 25 11 35
-4 22 23 47 50 48 9 0 23 -9 31 -21 9 -13 17 -16 21 -10 12 19 49 -24 41 -49
-7 -21 -6 -21 24 -6 16 9 40 16 53 17 23 1 22 1 -2 9 -24 7 -24 8 -5 16 30 14
135 10 144 -4 4 -7 16 -10 27 -6 14 4 16 3 5 -4 -11 -8 -10 -12 7 -21 29 -16
34 -14 27 9 -6 20 20 58 32 47 3 -4 13 4 23 16 15 18 22 20 46 12 21 -7 30
-18 32 -37 2 -15 10 -32 18 -38 19 -16 18 -39 -3 -62 -18 -20 -48 -24 -59 -7
-4 8 -9 8 -17 0 -17 -17 -34 -13 -63 14 -15 14 -32 25 -38 25 -6 0 -3 -7 8
-15 10 -8 15 -19 10 -26 -4 -7 -3 -10 4 -5 6 3 13 2 17 -4 10 -17 131 -12 149
6 23 22 17 132 -7 117 -5 -3 -7 0 -5 8 7 19 -21 38 -57 39 -16 0 -47 5 -69 11
-38 11 -38 11 -33 52 6 46 -8 31 -17 -17 -5 -30 16 -62 34 -51 25 15 27 -8 3
-31 -30 -28 -59 -31 -85 -7 -10 9 -18 12 -18 7 0 -5 -27 -7 -60 -6 -39 3 -60
0 -60 -7 0 -19 -59 -12 -80 9 -26 26 -25 26 9 33 28 6 29 8 25 50 l-5 45 52
12 c28 7 79 10 113 7 36 -3 53 -1 41 3 -34 14 -143 11 -182 -5 -29 -12 -38
-13 -45 -3 -11 18 -10 28 2 28 6 0 10 13 10 29 0 25 6 31 38 42 33 11 104 13
197 6 21 -1 32 4 40 20 26 51 75 84 75 50z"/>
<path d="M1853 2444 c-3 -8 0 -21 7 -27 10 -9 11 -7 5 11 -11 36 7 26 55 -33
36 -44 50 -54 71 -53 17 1 25 7 22 15 -3 7 -1 13 5 13 6 0 12 -5 14 -10 3 -10
68 15 68 26 0 3 -4 3 -9 -1 -5 -3 -12 -1 -16 5 -10 16 -28 12 -21 -5 4 -12 0
-14 -19 -9 -18 4 -27 1 -31 -10 -3 -9 -10 -16 -14 -16 -11 0 -80 70 -80 81 0
8 -32 29 -45 29 -3 0 -8 -7 -12 -16z"/>
<path d="M2064 2445 c-4 -8 -14 -15 -23 -16 -12 0 -13 -2 -2 -6 8 -3 20 2 27
11 10 14 17 15 33 7 11 -6 28 -11 38 -11 10 1 0 7 -22 15 -49 18 -44 18 -51 0z"/>
<path d="M1391 2429 c-46 -14 -34 -21 14 -8 40 11 107 8 139 -6 14 -6 18 -5
14 6 -6 17 -118 22 -167 8z"/>
<path d="M2209 2373 c-3 -24 -1 -43 3 -43 5 0 8 -4 8 -10 0 -5 -9 -10 -20 -10
-11 0 -20 -5 -20 -11 0 -6 9 -9 20 -6 16 4 20 0 21 -21 1 -20 2 -22 6 -7 2 11
6 30 9 42 2 12 17 30 32 38 15 9 18 13 7 10 -46 -16 -58 -18 -52 -8 3 5 3 23
-2 39 -8 28 -8 28 -12 -13z"/>
<path d="M812 2378 c-1 -15 -6 -30 -12 -33 -5 -3 -10 -15 -10 -26 0 -11 5 -17
10 -14 6 3 10 2 10 -3 0 -8 -34 -9 -72 -3 -4 1 -9 11 -11 24 -3 16 -5 13 -6
-10 l-1 -33 89 0 c50 0 92 4 95 9 3 4 -10 7 -29 6 -48 -2 -53 3 -58 60 -2 28
-4 38 -5 23z"/>
<path d="M1214 2356 c-15 -12 -17 -17 -6 -27 17 -18 15 -26 -8 -32 -11 -3 -20
-12 -20 -20 0 -36 43 -30 55 6 l8 22 4 -22 c5 -25 38 -32 45 -10 8 20 -3 37
-24 37 -15 0 -19 5 -15 20 7 28 -15 43 -39 26z"/>
<path d="M1672 2343 c2 -21 -1 -28 -16 -28 -22 0 -31 -41 -11 -49 17 -6 39 10
31 22 -3 6 -2 13 4 17 5 3 14 -5 20 -19 5 -14 16 -26 24 -26 35 0 29 44 -7 54
-20 6 -20 8 -6 19 22 17 12 37 -17 37 -21 0 -24 -4 -22 -27z"/>
<path d="M1855 2337 c41 -10 75 -39 75 -64 0 -7 5 -13 10 -13 13 0 -5 36 -33
68 -14 15 -31 22 -56 21 l-36 -1 40 -11z"/>
<path d="M2258 2304 c-11 -23 -8 -35 24 -98 21 -39 39 -78 42 -86 3 -10 5 -8
5 5 0 11 -13 43 -29 70 -35 59 -38 75 -9 49 15 -13 24 -16 36 -8 19 12 37 54
23 54 -6 0 -10 -9 -10 -20 0 -29 -25 -35 -50 -12 -26 24 -23 58 5 54 17 -2 17
-1 5 7 -23 16 -29 13 -42 -15z"/>
<path d="M711 2255 c-1 -12 4 -26 10 -32 6 -6 9 -36 7 -72 -4 -80 7 -79 16 1
4 45 2 66 -8 77 -7 9 -16 23 -19 31 -4 11 -6 9 -6 -5z"/>
<path d="M1944 2248 c-39 -20 -43 -20 -74 -4 -37 18 -66 21 -74 7 -4 -5 3 -7
14 -4 12 3 36 -2 54 -12 37 -20 67 -16 106 15 31 25 26 24 -26 -2z"/>
<path d="M1987 2234 c-3 -4 -2 -14 3 -24 5 -10 6 -20 3 -24 -3 -3 1 -6 10 -6
9 0 21 -8 26 -17 6 -11 11 -13 11 -5 0 18 -45 83 -53 76z"/>
<path d="M2151 2221 c-11 -7 -3 -16 34 -38 27 -15 59 -39 72 -52 19 -19 24
-21 29 -8 3 8 -2 30 -11 47 -15 28 -18 30 -29 15 -10 -14 -16 -15 -39 -4 -25
11 -31 21 -28 42 1 10 -11 9 -28 -2z"/>
<path d="M798 2213 c-22 -5 -24 -33 -3 -33 8 0 15 7 15 15 0 15 30 22 30 8 0
-5 13 -17 28 -27 l27 -19 -23 25 c-12 13 -19 28 -15 31 7 8 -31 7 -59 0z"/>
<path d="M1907 2174 c-3 -3 -23 -12 -44 -19 -21 -8 -31 -14 -23 -15 8 0 38 9
65 20 29 11 41 19 29 20 -11 0 -23 -3 -27 -6z"/>
<path d="M1423 2136 c-43 -36 -60 -95 -43 -146 8 -25 17 -37 23 -31 5 5 4 17
-3 31 -27 50 19 132 81 145 63 14 129 -44 129 -114 0 -29 -42 -91 -62 -91 -13
0 -1 50 18 71 18 20 18 33 -2 50 -9 7 -20 23 -25 36 -10 27 -53 32 -63 8 -3
-8 -15 -15 -26 -15 -26 0 -37 -27 -22 -51 7 -11 8 -20 2 -24 -6 -3 -10 -15
-10 -26 0 -12 4 -17 11 -14 5 4 8 12 6 18 -2 7 2 17 9 24 14 15 38 18 30 4 -4
-5 -2 -20 3 -33 6 -12 10 -17 10 -10 1 14 31 17 31 2 0 -20 -33 -61 -61 -76
-39 -20 -51 -18 -47 8 2 11 -2 23 -8 25 -6 2 -9 -10 -6 -30 2 -18 -3 -51 -12
-71 -19 -47 -19 -46 -1 -46 34 0 49 -52 44 -155 -1 -16 4 -56 11 -88 7 -31 10
-61 6 -65 -12 -11 -46 37 -46 64 0 12 -5 26 -10 29 -7 4 -9 -3 -6 -22 2 -15 5
-28 6 -28 1 0 3 -8 5 -17 2 -10 -2 -18 -9 -18 -23 0 -44 34 -50 80 -13 91 -12
95 9 95 13 0 20 -6 19 -17 -1 -10 4 -18 12 -18 8 0 14 7 14 16 0 8 5 12 10 9
6 -3 10 1 10 9 0 8 -6 13 -13 10 -7 -2 -21 4 -32 14 -18 17 -20 17 -47 -12
-24 -25 -27 -34 -22 -70 12 -77 70 -152 103 -131 5 3 13 1 16 -5 4 -7 25 0 56
17 45 24 48 28 30 35 -13 4 -21 16 -21 30 0 13 -7 33 -15 45 -9 14 -13 32 -9
46 3 14 -2 46 -10 71 -20 59 -20 65 3 59 10 -2 44 7 77 20 l59 25 22 -23 c31
-31 49 -81 34 -99 -6 -7 -8 -16 -5 -19 3 -3 3 -11 -2 -18 -4 -7 -8 -24 -10
-38 -7 -77 -50 -107 -77 -54 -14 26 -15 26 -21 5 -9 -27 13 -62 40 -62 11 0
30 10 41 23 26 29 57 148 54 212 -1 42 -6 55 -31 78 -38 34 -50 34 -109 0 -53
-29 -93 -27 -111 7 -9 16 -6 22 19 34 26 14 30 14 35 -1 6 -14 10 -13 31 7 14
13 25 32 25 42 0 17 3 17 33 -6 19 -15 41 -26 50 -26 8 0 25 -12 36 -26 14
-17 21 -21 21 -12 0 21 -38 68 -56 68 -20 0 -18 16 7 50 18 24 21 38 17 91 -4
56 -8 65 -37 89 -45 38 -127 41 -168 6z m106 -119 c-7 -15 -17 -23 -25 -20
-19 7 -18 28 2 48 23 23 38 5 23 -28z"/>
<path d="M2070 2135 c14 -8 35 -14 48 -15 21 0 23 -4 21 -45 -2 -31 3 -50 16
-65 18 -20 18 -20 -5 -20 -13 0 -21 -3 -17 -6 3 -4 19 -3 34 1 27 6 27 7 9 20
-15 11 -17 22 -13 52 8 48 1 59 -52 78 -54 19 -74 19 -41 0z"/>
<path d="M1980 2125 c-6 -8 -10 -22 -7 -32 4 -14 5 -13 6 5 1 29 27 39 49 20
30 -26 39 -28 53 -12 11 13 9 14 -12 9 -17 -4 -30 -1 -38 9 -17 20 -35 20 -51
1z"/>
<path d="M836 2075 c-3 -9 -6 -34 -6 -56 0 -37 -2 -39 -32 -40 -28 -2 -29 -3
-7 -6 14 -2 38 1 53 7 21 8 26 15 21 30 -3 11 -2 28 4 37 9 17 10 17 16 1 4
-10 5 -25 2 -33 -4 -8 -2 -17 4 -21 7 -4 9 12 7 43 -3 43 -5 48 -29 51 -17 2
-29 -3 -33 -13z"/>
<path d="M2450 1990 c-8 -4 -27 -13 -42 -19 -23 -9 -28 -17 -28 -46 0 -20 4
-45 10 -55 15 -29 26 -195 12 -186 -7 4 -12 3 -12 -1 0 -12 39 -35 49 -29 5 3
9 33 10 67 1 53 -1 61 -19 66 -39 10 -19 18 45 18 36 0 65 -3 65 -7 0 -5 -5
-8 -11 -8 -7 0 -9 -30 -5 -97 l6 -98 46 -40 c24 -22 53 -53 63 -70 16 -27 16
-35 4 -80 -16 -64 -16 -77 2 -45 26 47 29 97 6 129 -12 16 -21 34 -21 40 0 6
-4 11 -9 11 -4 0 -22 13 -39 30 -30 28 -31 32 -33 127 -1 54 1 135 5 180 l8
83 -47 20 c-26 11 -47 20 -48 19 -1 0 -9 -4 -17 -9z m34 -16 c17 -7 22 -34 6
-34 -5 0 -10 5 -10 10 0 6 -5 10 -12 10 -8 0 -6 -6 4 -17 14 -13 20 -14 32 -3
9 7 16 9 16 4 0 -5 4 -2 10 6 14 22 23 5 11 -19 -7 -11 -9 -31 -6 -43 6 -22 4
-23 -65 -23 l-70 0 5 27 c4 15 1 36 -5 47 -13 26 -3 27 17 4 8 -10 12 -12 8
-5 -9 18 6 15 22 -5 13 -17 14 -16 8 4 -4 13 -3 27 0 33 7 12 8 12 29 4z m56
-143 c0 -10 -71 -18 -107 -13 -49 7 -20 22 42 22 36 0 65 -4 65 -9z"/>
<path d="M468 1933 c-10 -2 -18 -8 -18 -13 0 -4 -8 -7 -17 -6 -15 1 -18 -8
-18 -54 1 -30 5 -71 9 -90 5 -19 11 -75 13 -123 l4 -89 -49 -52 c-27 -28 -55
-62 -61 -75 -15 -26 -7 -106 11 -117 7 -5 9 -2 5 9 -30 78 -20 106 69 192 l54
52 0 86 c0 71 -3 87 -15 87 -8 0 -15 4 -15 8 0 4 27 8 60 7 33 0 60 -3 60 -7
0 -5 -4 -8 -9 -8 -9 0 -5 -116 5 -131 2 -4 -12 -16 -31 -28 -19 -11 -35 -28
-35 -38 0 -15 1 -15 14 2 12 17 14 16 18 -18 4 -38 0 -45 -19 -26 -8 8 -15 4
-27 -12 l-16 -23 0 34 0 34 -50 -50 c-49 -49 -50 -51 -42 -93 6 -39 9 -42 21
-27 7 9 9 16 3 16 -5 0 -13 11 -16 25 -5 20 0 31 21 51 l28 26 3 -37 3 -37 30
28 c16 15 29 34 29 41 0 7 6 10 15 6 9 -3 24 2 34 11 15 14 18 26 13 58 -4 30
-2 39 6 34 7 -4 12 -14 12 -22 0 -8 4 -13 9 -10 5 3 7 14 4 25 -3 14 2 20 24
24 33 6 35 5 27 -16 -3 -9 -12 -13 -20 -10 -10 3 -14 -2 -14 -18 l0 -22 28 24
c15 13 29 25 31 26 2 2 -2 10 -9 18 -10 12 -10 19 -2 27 7 7 12 20 12 29 0 11
7 16 18 14 9 -1 11 0 5 2 -19 6 -16 21 5 26 13 4 11 5 -5 6 -13 1 -23 7 -23
16 0 8 -8 15 -17 14 -11 0 -13 -3 -5 -6 23 -9 12 -49 -24 -91 -35 -41 -55 -48
-50 -17 1 8 6 18 11 22 4 4 5 2 1 -4 -4 -7 -2 -13 3 -13 6 0 11 19 12 43 1 34
2 37 8 17 5 -17 9 -21 15 -12 4 7 2 19 -4 27 -6 8 -9 19 -5 25 3 5 2 10 -3 10
-8 0 -22 -23 -36 -60 -4 -8 -4 8 -1 35 3 28 8 82 12 122 l6 72 -38 15 c-38 16
-46 17 -77 9z m42 -7 c0 -2 3 -13 7 -23 6 -16 5 -16 -10 -4 -21 17 -22 5 -2
-15 13 -14 16 -14 21 1 6 13 8 14 15 3 7 -10 9 -9 9 5 0 9 5 17 10 17 14 0 13
-16 -2 -40 -11 -17 -10 -22 1 -29 27 -17 2 -26 -66 -25 -83 2 -78 1 -64 18 9
11 9 20 2 35 -16 30 -13 50 4 27 10 -13 15 -15 15 -6 0 9 5 8 16 -6 13 -16 15
-16 10 -1 -7 23 3 47 20 47 8 0 14 -2 14 -4z m50 -146 c0 -11 -8 -12 -60 -12
-62 0 -70 2 -70 12 0 6 28 10 65 10 37 0 65 -4 65 -10z"/>
<path d="M2032 1797 l-2 -47 -37 4 c-42 4 -66 -2 -57 -15 6 -10 71 -12 138 -3
49 7 66 26 17 20 -41 -4 -49 3 -54 49 -4 39 -4 39 -5 -8z"/>
<path d="M2150 1811 c0 -2 8 -9 17 -16 13 -10 19 -10 30 1 18 18 17 19 -17 19
-16 0 -30 -2 -30 -4z"/>
<path d="M1143 1803 c-7 -2 -13 -21 -13 -40 0 -20 3 -33 7 -29 4 4 7 19 8 34
0 19 5 27 17 26 10 -1 15 2 12 7 -6 10 -12 10 -31 2z"/>
<path d="M2322 1782 c-18 -12 -4 -158 16 -174 13 -11 14 -10 6 5 -6 10 -8 32
-6 49 l5 31 18 -24 c10 -13 19 -19 19 -12 0 6 -14 27 -30 45 -35 38 -36 71 -3
76 20 3 22 0 18 -35 -3 -21 -2 -29 1 -18 4 11 11 26 17 33 19 23 -31 43 -61
24z"/>
<path d="M867 1723 c-13 -13 -7 -34 18 -58 38 -39 50 -29 16 12 -16 20 -28 40
-25 45 6 10 0 11 -9 1z"/>
<path d="M1505 1689 c-21 -8 -21 -8 10 -14 11 -2 26 -12 34 -22 13 -17 13 -17
7 0 -3 10 -6 24 -6 31 0 14 -17 16 -45 5z"/>
<path d="M1953 1617 c-1 -48 1 -65 7 -52 11 25 13 112 3 118 -5 3 -9 -27 -10
-66z"/>
<path d="M2023 1673 c-15 -6 -17 -33 -3 -33 6 0 10 7 10 15 0 22 14 19 49 -11
18 -15 29 -19 25 -11 -3 9 -13 19 -22 22 -15 6 -15 8 3 15 16 7 13 9 -15 9
-19 -1 -41 -3 -47 -6z"/>
<path d="M2445 1610 c-3 -6 1 -17 9 -26 9 -8 16 -11 16 -5 0 6 9 2 20 -9 12
-12 25 -18 29 -15 5 2 12 -2 15 -11 3 -8 2 -12 -4 -9 -6 3 -10 -3 -10 -14 0
-12 -5 -21 -11 -21 -6 0 -8 7 -5 17 4 10 4 14 0 10 -4 -4 -13 -2 -21 4 -7 6
-13 8 -13 3 0 -5 -5 -2 -10 6 -7 10 -10 11 -10 2 0 -7 8 -16 18 -19 9 -4 21
-12 25 -20 4 -7 14 -13 21 -13 8 0 19 -7 26 -15 7 -9 19 -14 25 -11 7 2 18 -1
24 -7 8 -8 11 -4 11 17 0 18 4 25 12 20 7 -5 8 -3 3 5 -5 9 -13 8 -29 -7 -24
-22 -47 -19 -39 6 4 15 3 15 -6 2 -8 -11 -11 -12 -11 -2 0 7 7 21 16 29 15 15
14 18 -7 34 -13 10 -26 16 -30 13 -4 -2 -9 3 -12 10 -8 21 -44 39 -52 26z"/>
<path d="M1012 1575 c3 -13 0 -26 -5 -28 -7 -2 -4 -13 6 -27 l17 -24 0 26 c0
15 5 30 10 33 7 4 7 13 0 26 -15 27 -33 24 -28 -6z"/>
<path d="M2380 1552 c0 -6 6 -12 14 -15 13 -5 21 -111 28 -359 1 -34 6 -58 12
-58 8 0 10 62 8 200 l-3 199 -29 21 c-17 12 -30 17 -30 12z"/>
<path d="M2060 1494 c0 -54 1 -56 23 -50 12 3 26 6 30 6 4 0 7 21 5 48 -3 43
-5 47 -30 50 -28 3 -28 3 -28 -54z"/>
<path d="M1940 1493 c0 -24 5 -43 10 -43 6 0 10 15 10 34 0 30 4 35 28 38 24
3 22 4 -10 9 l-38 5 0 -43z"/>
<path d="M2217 1533 c-4 -7 -3 -14 3 -18 7 -4 7 -12 0 -25 -13 -25 -13 -30 5
-30 16 0 19 31 6 64 -5 13 -10 16 -14 9z"/>
<path d="M579 1497 c-35 -29 -38 -44 -45 -241 -7 -164 -6 -166 14 -166 21 0
21 4 19 194 l-2 194 25 21 c14 11 23 20 20 21 -3 0 -17 -10 -31 -23z"/>
<path d="M2610 1448 c0 -25 -3 -29 -10 -18 -5 8 -10 10 -10 4 0 -6 7 -17 15
-24 13 -11 15 -7 15 29 0 22 -2 41 -5 41 -3 0 -5 -15 -5 -32z"/>
<path d="M2514 1300 c-1 -156 1 -170 17 -170 16 0 17 11 13 129 -2 71 0 140 5
154 8 20 6 29 -8 41 -10 9 -20 16 -22 16 -3 0 -5 -76 -5 -170z"/>
<path d="M402 1448 c-15 -15 -16 -55 -2 -63 6 -4 8 -15 5 -26 -4 -10 -2 -27 4
-36 9 -15 10 -13 11 15 0 34 14 45 18 15 2 -10 5 -73 8 -140 3 -68 10 -123 15
-123 5 0 9 72 9 165 0 91 -4 165 -8 165 -5 0 -17 -9 -27 -20 -16 -18 -20 -19
-27 -6 -5 10 -4 24 2 37 14 24 9 34 -8 17z"/>
<path d="M2055 1356 c-20 -20 -21 -23 -4 -7 25 21 34 23 95 17 69 -6 82 -2 29
9 -73 15 -88 12 -120 -19z"/>
<path d="M2583 1347 c-13 -28 -1 -52 21 -44 17 7 20 24 10 51 -9 22 -19 20
-31 -7z"/>
<path d="M372 1299 c-7 -27 -6 -37 6 -46 22 -18 29 -16 35 6 2 11 -4 32 -13
47 l-19 27 -9 -34z"/>
<path d="M795 1263 c-15 -63 -127 -274 -189 -358 -36 -49 -66 -93 -66 -97 0
-38 132 137 190 252 18 36 43 94 56 129 23 66 35 81 68 81 17 0 18 -5 12 -46
-5 -39 -4 -45 8 -35 12 10 24 -7 71 -101 151 -299 305 -509 464 -628 82 -62
135 -88 231 -111 104 -26 130 -23 45 5 -289 94 -523 350 -740 809 l-60 126
-41 1 c-37 0 -43 -3 -49 -27z"/>
<path d="M1184 1234 c50 -24 92 -48 95 -52 4 -4 27 -16 53 -26 26 -10 50 -22
53 -27 15 -23 97 3 93 30 -2 8 7 20 20 26 29 16 42 28 18 19 -14 -5 -17 -4
-12 4 4 7 14 12 22 12 8 0 14 7 14 15 0 16 -30 35 -56 35 -16 0 -16 -1 2 -15
18 -14 18 -16 2 -25 -9 -6 -15 -17 -12 -24 7 -19 -42 -71 -50 -54 -5 10 -7 10
-12 1 -6 -15 -53 6 -88 38 -11 11 -26 17 -33 14 -8 -2 -52 13 -100 35 -115 53
-120 50 -9 -6z"/>
<path d="M2056 1200 c3 -8 7 -20 7 -26 1 -20 -64 -176 -133 -319 -111 -230
-201 -353 -298 -407 -59 -34 -61 -44 -6 -33 28 5 54 24 108 79 102 104 217
308 306 544 24 61 47 112 53 112 6 0 7 -22 3 -57 -6 -50 -5 -55 7 -40 12 17
15 14 37 -34 23 -48 89 -134 90 -116 0 4 -15 38 -34 75 -18 37 -41 90 -50 117
-10 28 -22 58 -27 68 -6 10 -7 27 -4 38 6 17 2 19 -29 17 -29 -2 -35 -6 -30
-18z"/>
<path d="M1546 1150 c6 -44 4 -50 -12 -51 -18 0 -18 -1 1 -9 33 -14 35 -12 35
50 0 47 -3 60 -15 60 -13 0 -15 -9 -9 -50z"/>
<path d="M1794 1187 c-3 -10 -17 -17 -32 -17 -35 0 -18 -14 19 -16 33 -2 49
20 31 38 -8 8 -13 7 -18 -5z"/>
<path d="M1640 1134 c33 -30 44 -35 69 -29 16 3 35 13 43 22 11 14 8 15 -30 8
-34 -5 -47 -3 -71 14 -47 34 -54 24 -11 -15z"/>
<path d="M1172 1096 c-28 -20 -30 -25 -17 -36 8 -7 15 -18 14 -24 0 -7 -2 -6
-6 2 -2 6 -12 12 -21 12 -14 0 -14 -2 -3 -9 8 -6 12 -18 8 -31 l-6 -22 23 21
23 22 17 -26 c13 -19 14 -30 6 -45 -9 -16 -8 -18 5 -14 8 4 15 11 15 17 0 7 4
7 12 -1 10 -10 10 -15 -1 -21 -10 -7 -11 -10 0 -16 7 -5 18 0 28 12 14 17 19
18 29 6 16 -16 32 -8 32 16 0 14 6 17 26 13 23 -4 25 -2 19 17 -6 20 -4 22 27
19 l33 -3 -2 -82 c-1 -82 -1 -83 23 -83 24 0 24 1 10 29 -14 27 -12 41 5 41 5
0 13 -18 19 -41 11 -40 5 -60 -25 -81 -20 -14 5 -20 39 -8 36 12 45 23 26 35
-16 10 -12 22 10 28 14 4 20 14 20 34 0 37 9 48 43 50 18 1 27 -3 27 -13 0
-17 12 -18 29 -1 10 10 14 8 22 -6 6 -9 14 -15 20 -12 12 8 11 -10 -3 -57 -11
-38 -13 -39 -45 -33 -48 9 -41 -1 22 -30 45 -22 55 -31 55 -51 0 -14 4 -23 9
-19 14 8 25 -15 12 -28 -7 -7 -3 -14 16 -24 32 -17 33 -17 33 5 0 11 -9 27
-19 36 -15 13 -18 26 -14 52 5 31 3 35 -26 45 -35 12 -35 11 -19 78 12 52 30
68 66 57 9 -3 24 -1 32 4 10 7 -17 9 -85 8 -117 -1 -161 11 -145 41 14 26 13
31 -5 31 -9 0 -18 12 -21 29 -5 25 -11 29 -51 35 -26 3 -52 11 -58 16 -9 8
-21 3 -43 -15 -26 -22 -31 -23 -42 -9 -15 18 -92 54 -114 54 -9 0 -16 -4 -16
-10 0 -5 5 -10 11 -10 21 0 119 -52 119 -63 0 -15 -73 -67 -94 -67 -11 0 -16
9 -16 29 0 17 -6 31 -16 35 -25 9 -26 8 -8 -19 26 -40 -1 -29 -35 14 -17 21
-31 41 -31 44 0 2 14 10 30 17 17 7 30 16 30 21 0 16 -25 9 -58 -15z m278 -32
c3 0 24 -5 48 -9 41 -7 43 -10 37 -34 -3 -14 -20 -41 -38 -58 -21 -22 -26 -33
-16 -33 8 0 28 14 44 30 16 17 32 30 37 30 14 0 9 -47 -6 -59 -8 -7 -17 -23
-20 -36 -8 -32 -23 -32 -37 -1 -6 13 -20 27 -31 29 -18 5 -18 8 -4 40 15 37 7
57 -22 57 -22 0 -43 32 -30 47 6 7 15 10 22 6 6 -4 13 -8 16 -9z"/>
<path d="M2448 1103 c23 -2 59 -2 80 0 20 2 1 4 -43 4 -44 0 -61 -2 -37 -4z"/>
<path d="M440 1069 c0 -7 22 -9 65 -7 89 6 94 18 7 18 -45 0 -72 -4 -72 -11z"/>
<path d="M2410 1064 c0 -13 7 -15 31 -10 17 3 51 6 75 6 24 0 44 5 44 10 0 6
-32 10 -75 10 -63 0 -75 -3 -75 -16z"/>
<path d="M1265 1030 c41 -33 45 -34 45 -21 0 10 -61 51 -75 51 -4 0 9 -13 30
-30z"/>
<path d="M498 1042 c-92 -4 -86 -22 7 -22 41 0 75 4 75 9 0 15 -10 16 -82 13z"/>
<path d="M1361 931 c-1 -8 -10 -25 -22 -37 -20 -21 -19 -44 1 -44 11 0 33 67
27 83 -4 8 -6 8 -6 -2z"/>
<path d="M1872 932 c-12 -2 -20 -8 -17 -13 8 -13 65 -11 65 2 0 5 -4 8 -9 5
-5 -4 -11 -3 -13 1 -1 5 -13 7 -26 5z"/>
<path d="M1280 893 c0 -7 -9 -13 -20 -13 -11 0 -20 -4 -20 -10 0 -12 47 -14
54 -2 2 4 1 14 -5 22 -6 10 -9 11 -9 3z"/>
<path d="M1258 800 c-2 -22 0 -40 4 -40 5 0 8 -6 8 -14 0 -7 6 -19 14 -25 12
-10 17 -8 26 9 9 16 8 21 -5 27 -24 8 -38 52 -24 69 9 11 8 14 -4 14 -10 0
-16 -13 -19 -40z"/>
<path d="M1343 830 c-31 -13 -29 -20 7 -20 20 0 30 5 30 15 0 17 -5 18 -37 5z"/>
<path d="M1105 2860 c-11 -5 -15 -9 -8 -9 14 -1 47 -97 39 -116 -3 -8 -16 -15
-30 -15 -20 0 -27 8 -40 48 -9 27 -14 56 -10 65 4 12 1 14 -15 10 -22 -6 -39
-23 -23 -23 4 0 16 -24 26 -54 18 -58 40 -75 74 -57 38 20 42 34 26 86 -8 27
-12 55 -10 62 6 15 0 15 -29 3z"/>
<path d="M1923 2841 c2 -25 -33 -111 -44 -111 -16 0 -1 -17 20 -23 13 -3 18 0
15 7 -8 21 30 111 46 111 24 0 24 -42 0 -50 -18 -6 -20 -12 -14 -43 6 -36 19
-60 28 -51 2 2 1 20 -3 39 -6 29 -3 38 19 57 25 22 25 22 5 41 -11 10 -32 23
-47 30 -23 10 -27 9 -25 -7z"/>
<path d="M925 2798 c-28 -16 -35 -28 -35 -66 0 -36 37 -82 65 -82 22 0 75 28
75 40 0 19 -18 19 -23 0 -4 -15 -14 -20 -36 -20 -38 0 -64 35 -59 82 3 30 6
33 36 33 17 0 31 4 29 10 -5 15 -29 16 -52 3z"/>
<path d="M2039 2761 c-43 -44 -35 -102 17 -121 78 -30 139 100 65 139 -32 17
-51 13 -82 -18z m89 -28 c6 -64 -61 -113 -88 -64 -14 27 -13 31 10 69 16 27
26 33 48 30 22 -2 28 -9 30 -35z"/>
<path d="M823 2748 c-23 -11 -31 -28 -14 -28 14 0 62 -92 57 -106 -4 -11 0
-11 21 -1 14 6 20 13 14 15 -18 6 -62 99 -55 116 7 18 7 18 -23 4z"/>
<path d="M2206 2717 c6 -16 -52 -107 -68 -107 -7 0 4 -12 25 -26 21 -14 45
-23 53 -20 20 8 17 25 -3 20 -10 -2 -24 0 -31 4 -10 7 -6 20 19 60 17 28 36
49 40 46 17 -10 9 9 -8 22 -23 17 -34 18 -27 1z"/>
<path d="M718 2683 c-28 -18 -36 -33 -18 -33 14 0 72 -89 65 -100 -9 -14 7
-12 28 4 17 13 25 32 8 22 -5 -3 -14 0 -20 8 -9 10 -7 21 6 45 32 54 -13 89
-69 54z m60 -36 c-4 -30 -23 -31 -38 -2 -12 23 -12 28 0 35 19 12 42 -8 38
-33z"/>
<path d="M2306 2637 c-3 -12 -20 -39 -39 -59 -24 -26 -31 -40 -23 -48 13 -13
26 -13 26 1 0 18 62 99 71 93 5 -3 9 -1 9 5 0 6 -9 15 -19 20 -16 9 -20 7 -25
-12z"/>
<path d="M626 2619 c-48 -38 -22 -85 41 -74 15 3 35 1 43 -4 22 -15 -1 -47
-30 -43 -19 2 -21 0 -10 -13 10 -12 15 -12 35 1 30 19 38 40 25 65 -8 15 -22
19 -61 19 -43 0 -50 3 -47 17 2 11 15 20 32 23 25 4 27 7 14 18 -12 10 -20 8
-42 -9z"/>
<path d="M2370 2606 c0 -23 -49 -86 -74 -96 -20 -7 -20 -7 2 -19 16 -9 22 -9
22 0 0 6 11 24 25 41 l25 30 0 -69 1 -68 44 48 c24 26 49 47 55 47 10 0 10 3
0 15 -13 15 -35 21 -26 7 2 -4 -9 -23 -26 -42 l-29 -35 5 66 c5 52 3 69 -9 79
-12 10 -15 10 -15 -4z"/>
<path d="M546 2551 c-15 -16 -16 -21 -4 -21 8 0 27 -14 44 -31 24 -26 26 -30
9 -26 -44 12 -118 12 -122 0 -3 -7 2 -13 10 -13 8 0 33 -20 55 -44 34 -37 43
-42 53 -30 9 11 8 14 -3 14 -8 0 -27 14 -44 31 l-29 31 70 -7 70 -7 -42 44
c-22 23 -43 51 -45 62 -3 17 -4 17 -22 -3z"/>
<path d="M2472 2433 c-39 -14 -70 -29 -66 -34 3 -5 13 -5 25 2 16 8 23 6 39
-13 24 -28 24 -35 4 -46 -13 -7 -13 -10 -1 -21 12 -10 20 -1 46 55 17 37 30
70 29 74 -2 4 -36 -4 -76 -17z m36 -28 c-11 -23 -13 -24 -27 -10 -14 14 -14
17 -1 25 29 19 41 12 28 -15z"/>
<path d="M401 2394 c-28 -36 -26 -60 8 -95 35 -35 70 -37 99 -6 36 38 28 88
-19 112 -41 22 -65 18 -88 -11z m82 -14 c48 -38 43 -90 -8 -90 -24 0 -75 45
-75 66 0 47 39 58 83 24z"/>
<path d="M317 2283 c-32 -37 -25 -88 16 -113 42 -26 63 -25 92 5 26 25 34 65
14 65 -6 0 -8 -7 -5 -16 8 -20 -20 -54 -45 -54 -10 0 -32 12 -49 26 -36 31
-37 63 -3 80 13 6 20 14 16 17 -10 11 -19 8 -36 -10z"/>
<path d="M2600 2260 c-74 -18 -79 -22 -31 -24 13 -1 30 -11 38 -22 12 -19 12
-24 -3 -38 -12 -13 -14 -20 -6 -28 7 -7 13 -10 15 -7 32 46 77 121 77 129 0
12 3 12 -90 -10z m50 -19 c-16 -30 -28 -34 -39 -12 -11 20 -10 21 42 30 4 0 3
-8 -3 -18z"/>
<path d="M2669 2145 c-33 -18 -44 -57 -27 -93 13 -27 48 -43 48 -23 0 6 -7 11
-15 11 -8 0 -19 9 -25 20 -9 17 -6 25 19 50 49 49 111 33 97 -26 -5 -19 -3
-25 6 -22 21 7 20 42 -2 71 -24 30 -60 35 -101 12z"/>
<path d="M210 2089 c-16 -28 -8 -63 14 -67 10 -2 36 4 58 14 39 18 41 18 54
-1 14 -19 19 -9 8 19 -8 21 -34 20 -79 -1 -24 -11 -38 -14 -45 -7 -15 15 -1
44 22 44 10 0 16 5 13 10 -10 17 -34 11 -45 -11z"/>
<path d="M172 1986 c-9 -21 -9 -25 6 -23 26 1 112 -34 112 -47 0 -11 20 13 20
24 0 3 -25 14 -56 25 -30 10 -58 25 -63 32 -5 11 -10 8 -19 -11z"/>
<path d="M2675 1992 c3 -7 5 -15 5 -16 0 -2 11 -1 24 1 19 4 25 0 30 -23 6
-21 3 -31 -10 -41 -9 -6 -14 -18 -11 -26 4 -10 23 2 66 42 34 31 55 57 48 58
-6 2 -45 7 -85 11 -61 7 -72 6 -67 -6z m105 -32 c-18 -13 -27 -15 -32 -7 -14
21 -8 27 25 27 l32 0 -25 -20z"/>
<path d="M153 1908 c-9 -12 -33 -74 -33 -86 0 -4 5 -1 11 5 10 10 69 0 121
-22 13 -5 18 1 23 29 4 20 5 43 1 51 -6 17 -52 20 -61 4 -5 -6 -13 -3 -22 10
-16 24 -27 26 -40 9z m44 -38 c5 -19 7 -19 17 -4 17 22 50 14 54 -14 4 -26 -3
-27 -73 -6 -39 11 -52 19 -48 30 8 21 44 17 50 -6z"/>
<path d="M2850 1882 c0 -11 -106 -35 -119 -28 -18 12 10 -79 30 -96 35 -30
102 -17 114 22 9 28 -3 110 -16 110 -5 0 -9 -4 -9 -8z m18 -54 c4 -22 -41 -68
-66 -68 -25 0 -50 21 -54 44 -2 15 6 23 37 32 51 16 79 13 83 -8z"/>
<path d="M121 1766 c-7 -8 -14 -29 -17 -48 l-6 -33 57 -2 c32 -2 64 -8 71 -14
9 -7 14 -8 14 -1 0 6 2 17 5 24 4 11 -3 13 -30 10 -46 -5 -45 11 2 35 20 10
39 23 41 30 2 7 -11 5 -35 -7 -37 -18 -38 -18 -56 1 -21 23 -31 24 -46 5z m47
-38 c3 -13 -3 -18 -21 -18 -29 0 -37 7 -30 27 8 19 47 12 51 -9z"/>
<path d="M2891 1723 c-1 -11 -47 -22 -109 -26 -20 -1 -23 -6 -20 -42 2 -30 8
-41 22 -43 18 -4 19 -3 3 13 -30 29 -16 55 30 55 11 0 14 -7 11 -25 -4 -19 -1
-25 13 -25 17 0 18 3 7 20 -11 17 -10 22 2 30 8 5 20 10 26 10 16 0 24 -36 11
-49 -8 -8 -6 -11 6 -11 12 0 17 8 16 28 -1 29 -16 85 -18 65z"/>
<path d="M108 1627 c-29 -23 -32 -61 -6 -90 25 -29 49 -35 91 -24 47 13 59 83
18 114 -21 16 -81 16 -103 0z m100 -23 c26 -18 28 -31 5 -56 -32 -36 -113 -17
-113 27 0 42 64 60 108 29z"/>
<path d="M2770 1571 c0 -13 10 -16 52 -13 l53 2 -42 -22 c-24 -12 -43 -25 -43
-29 0 -3 21 -16 48 -28 l47 -22 -58 3 c-55 3 -57 2 -57 -21 0 -20 3 -22 12
-13 7 7 35 12 63 12 28 0 56 -5 63 -12 9 -9 12 -7 12 8 0 15 -14 27 -50 44
l-50 24 47 25 c27 15 49 35 52 46 3 16 1 17 -12 6 -12 -9 -31 -10 -76 -3 -53
8 -61 7 -61 -7z"/>
<path d="M178 1403 c-9 -10 -21 -28 -27 -40 -6 -13 -18 -23 -27 -23 -20 0 -29
27 -14 45 14 17 8 31 -9 20 -15 -9 -14 -58 1 -73 22 -22 45 -13 72 28 17 26
31 37 41 34 17 -7 21 -54 5 -54 -5 0 -10 -4 -10 -10 0 -5 7 -7 15 -4 23 9 20
71 -4 84 -25 13 -25 13 -43 -7z"/>
<path d="M2770 1392 c0 -6 -2 -16 -5 -24 -4 -10 5 -12 40 -10 25 2 58 -1 75
-6 27 -10 30 -9 30 11 0 20 -4 22 -55 19 -34 -3 -61 1 -70 8 -9 8 -15 8 -15 2z"/>
<path d="M2760 1326 c0 -8 9 -16 20 -19 17 -4 20 -10 14 -34 -8 -34 -8 -34
-31 -37 -10 -2 -19 -10 -21 -18 -2 -12 10 -11 78 6 44 11 80 23 80 26 0 3 -32
24 -70 47 -45 28 -70 38 -70 29z m94 -67 c-3 -5 -16 -9 -29 -9 -18 0 -22 4
-18 19 4 17 9 18 29 9 13 -6 21 -15 18 -19z"/>
<path d="M171 1265 c-71 -49 -72 -47 32 -69 54 -11 67 -11 67 -1 0 8 -8 11
-20 8 -15 -4 -22 2 -30 23 -13 32 -7 54 15 54 8 0 15 7 15 15 0 22 -8 19 -79
-30z m35 -52 c-2 -2 -16 -1 -31 3 l-28 7 24 18 c23 17 24 17 32 -3 4 -12 6
-23 3 -25z"/>
<path d="M249 1143 c-21 -25 -31 -29 -57 -25 -41 6 -49 -14 -32 -71 8 -25 15
-35 17 -25 4 15 88 45 119 42 6 -1 9 7 7 16 -4 16 -9 16 -68 -5 -55 -20 -64
-21 -69 -8 -3 8 -4 19 0 24 7 12 37 12 50 -1 6 -6 19 3 37 26 35 43 31 68 -4
27z"/>
<path d="M2712 1094 c-30 -21 -28 -38 3 -18 26 17 58 12 88 -14 24 -21 22 -62
-3 -69 -21 -6 -18 -23 5 -23 8 0 20 18 27 41 12 41 11 42 -20 70 -36 32 -67
37 -100 13z"/>
<path d="M295 1030 c-3 -5 0 -10 8 -10 23 0 31 -33 11 -47 -28 -20 -44 -15
-44 12 0 14 -4 25 -8 25 -18 0 -20 -13 -6 -35 13 -20 12 -23 -10 -33 -28 -13
-36 -7 -36 25 0 13 -4 23 -10 23 -5 0 -10 -8 -10 -17 1 -21 39 -94 40 -75 0
14 99 64 112 56 11 -7 10 0 -8 46 -16 40 -27 49 -39 30z"/>
<path d="M2650 960 c-44 -44 -4 -120 64 -120 63 0 88 69 41 115 -30 31 -77 33
-105 5z m80 -15 c59 -31 46 -92 -18 -81 -59 9 -90 54 -60 84 16 16 43 15 78
-3z"/>
<path d="M376 892 c-3 -5 -28 -21 -55 -36 -52 -26 -68 -23 -56 14 5 15 3 18
-9 14 -21 -8 -20 -16 9 -74 27 -53 31 -56 55 -40 13 8 13 10 -1 10 -9 0 -22 6
-28 14 -10 12 -2 19 40 43 29 15 56 27 61 26 10 -4 10 8 -1 26 -5 8 -11 9 -15
3z"/>
<path d="M2597 853 c-4 -3 0 -14 9 -24 14 -16 14 -20 -1 -43 -20 -29 -20 -30
-45 -16 -13 7 -19 6 -23 -5 -5 -10 9 -17 51 -25 31 -7 67 -14 80 -17 12 -3 22
-2 22 1 0 15 -87 135 -93 129z m58 -102 c-2 -2 -16 -1 -30 3 -22 6 -24 9 -13
26 13 20 13 20 30 -2 9 -13 15 -24 13 -27z"/>
<path d="M410 800 c0 -5 5 -9 11 -7 6 1 16 -6 22 -15 9 -13 7 -21 -8 -38 -18
-20 -20 -20 -32 -4 -7 9 -10 22 -6 27 4 6 0 8 -11 4 -10 -4 -20 -7 -22 -7 -2
0 -4 -4 -4 -10 0 -5 6 -10 14 -10 24 0 30 -22 11 -37 -27 -19 -33 -17 -43 20
-7 25 -11 28 -17 15 -4 -10 2 -28 17 -48 l23 -31 86 3 c63 2 85 6 82 15 -3 7
-15 10 -31 7 -20 -4 -30 0 -40 16 -14 24 -7 44 14 36 8 -3 3 11 -12 34 -25 37
-54 53 -54 30z m43 -104 c4 -10 -4 -15 -26 -19 -40 -6 -46 -1 -21 18 24 18 40
19 47 1z"/>
<path d="M2479 691 c-30 -30 -34 -51 -12 -58 6 -2 8 6 6 21 -6 28 26 51 57 41
22 -7 60 -51 60 -71 0 -20 -29 -44 -45 -38 -8 4 -15 2 -15 -4 0 -18 29 -22 45
-6 41 41 42 75 2 111 -40 37 -64 38 -98 4z"/>
<path d="M535 641 c-3 -5 7 -11 22 -13 37 -4 43 -43 13 -81 -36 -45 -111 -30
-94 19 7 18 6 18 -12 2 -17 -17 -17 -18 6 -43 34 -36 81 -34 114 6 32 38 33
63 1 94 -26 26 -40 31 -50 16z"/>
<path d="M2384 589 c-14 -15 -14 -19 -3 -19 21 0 93 -76 84 -90 -4 -6 -16 -8
-28 -4 -21 6 -21 5 -4 -12 17 -18 19 -17 63 27 40 40 43 47 30 58 -14 12 -16
10 -16 -7 0 -37 -17 -33 -63 17 -44 47 -46 48 -63 30z"/>
<path d="M2297 513 c-40 -28 -41 -31 -27 -53 8 -12 10 -11 10 8 0 30 26 39 50
17 22 -20 18 -35 -11 -35 -23 0 -25 -13 -4 -30 12 -10 15 -9 15 4 0 25 29 31
44 10 12 -16 11 -20 -5 -32 -10 -7 -24 -10 -29 -7 -6 3 -10 2 -10 -4 0 -22 22
-21 55 5 19 14 35 31 35 36 0 5 -4 7 -9 4 -11 -7 -82 84 -75 95 8 14 1 11 -39
-18z"/>
<path d="M690 481 c0 -33 -4 -40 -21 -43 -12 -2 -27 -11 -33 -21 -9 -15 -5
-23 23 -49 l33 -30 15 29 c7 16 27 44 43 61 28 31 28 32 8 43 -11 6 -18 7 -15
2 8 -12 -22 -55 -33 -48 -4 3 -6 22 -3 44 3 23 1 41 -6 45 -7 5 -11 -6 -11
-33z m20 -71 c0 -4 -9 -15 -21 -26 -17 -16 -22 -16 -29 -4 -14 21 -12 28 7 38
17 10 43 5 43 -8z"/>
<path d="M2215 450 c-3 -5 -2 -10 3 -10 4 0 19 -19 32 -42 23 -42 20 -42 -32
-6 -14 10 -29 18 -33 18 -4 0 -4 -26 -1 -57 l7 -58 -25 40 c-14 22 -26 46 -26
53 0 10 -5 10 -20 2 -20 -11 -20 -11 -2 -28 29 -25 60 -85 54 -102 -5 -13 -3
-13 12 0 14 11 17 25 14 67 -3 29 -3 53 -1 53 2 0 21 -11 41 -25 38 -26 67
-32 76 -16 3 5 -2 11 -12 13 -9 3 -28 28 -42 56 -25 52 -34 60 -45 42z"/>
<path d="M795 430 c-3 -6 3 -10 15 -10 26 0 35 -22 21 -49 -13 -23 -41 -18
-41 6 0 13 -3 13 -15 3 -18 -15 -20 -31 -2 -25 6 3 18 1 26 -4 10 -7 11 -13 2
-30 -15 -26 -27 -27 -43 -1 -14 23 -28 26 -28 8 0 -11 61 -58 75 -58 3 0 5 7
5 16 0 9 15 38 34 63 l33 47 -38 22 c-23 13 -40 18 -44 12z"/>
<path d="M934 361 c3 -5 -5 -34 -19 -65 -18 -41 -29 -54 -40 -50 -8 4 -15 13
-15 21 0 8 -4 11 -10 8 -14 -9 -12 -35 3 -35 7 0 30 -9 51 -21 36 -19 40 -19
55 -4 15 16 14 17 -6 10 -13 -3 -27 -4 -32 0 -12 7 23 95 44 111 12 9 10 13
-11 23 -14 6 -23 7 -20 2z"/>
<path d="M2067 364 c-3 -3 -3 -13 0 -21 7 -18 -22 -43 -49 -43 -10 0 -18 7
-18 16 0 11 -5 14 -16 10 -9 -3 -18 -6 -21 -6 -6 0 107 -104 119 -109 6 -2 8
30 7 78 -3 76 -7 90 -22 75z m6 -86 c8 -30 1 -35 -23 -13 -16 14 -17 20 -8 27
20 12 25 10 31 -14z"/>
<path d="M1021 268 c-7 -24 -19 -53 -26 -64 -12 -19 -12 -22 4 -27 14 -3 18 2
19 22 0 14 5 37 10 50 8 23 11 20 33 -37 13 -34 30 -64 38 -67 8 -3 11 0 8 9
-7 17 23 116 35 116 5 0 6 5 3 10 -3 6 -13 10 -21 10 -8 0 -13 -4 -10 -8 6
-10 -15 -82 -24 -82 -3 0 -14 25 -25 55 -10 30 -21 55 -25 55 -4 0 -12 -19
-19 -42z"/>
<path d="M1900 296 c-19 -7 -37 -21 -38 -30 -3 -15 -1 -15 17 3 12 12 25 21
30 21 15 0 49 -108 38 -119 -12 -12 -3 -14 31 -5 12 4 22 11 22 16 0 5 -4 7
-9 3 -11 -6 -54 102 -46 116 8 12 -2 11 -45 -5z"/>
<path d="M1793 267 c-34 -8 -43 -14 -42 -31 1 -15 3 -16 6 -5 2 10 13 19 24
22 26 7 51 -39 29 -53 -9 -5 -19 -5 -27 2 -10 8 -13 5 -13 -10 0 -26 16 -37
24 -17 9 24 33 18 38 -9 6 -28 -13 -40 -45 -30 -14 4 -17 3 -12 -6 5 -8 21
-10 48 -6 52 9 62 15 44 29 -16 14 -41 103 -32 118 4 5 5 8 3 8 -2 -1 -22 -6
-45 -12z"/>
<path d="M1175 232 c-3 -22 -13 -51 -21 -67 -16 -32 -17 -30 16 -40 19 -6 22
-4 14 5 -9 9 -7 27 7 73 23 74 22 67 5 67 -9 0 -17 -15 -21 -38z"/>
<path d="M1687 238 c15 -19 26 -88 14 -88 -6 0 -14 6 -18 13 -5 6 -23 25 -41
42 l-33 30 3 -72 c3 -62 6 -73 21 -73 18 0 23 15 8 24 -5 3 -11 21 -13 40 l-4
35 51 -43 c27 -24 56 -41 62 -39 10 4 9 8 -2 20 -13 13 -19 45 -18 106 0 10
-8 17 -20 17 -14 0 -17 -3 -10 -12z"/>
<path d="M1307 233 c-14 -14 -6 -38 24 -69 20 -20 29 -39 26 -48 -8 -20 -21
-20 -41 -1 -19 19 -26 19 -26 0 0 -19 48 -31 69 -18 27 17 24 44 -10 79 -27
28 -30 36 -19 49 10 12 10 15 -2 15 -8 0 -18 -3 -21 -7z"/>
<path d="M1500 222 c-27 -22 -19 -45 26 -73 19 -11 34 -25 34 -30 0 -17 -32
-23 -52 -10 -17 11 -19 10 -16 -6 4 -24 51 -29 72 -8 24 25 20 43 -19 67 -19
13 -35 31 -35 41 0 26 30 34 46 12 8 -10 17 -16 20 -12 10 10 -16 37 -36 37
-10 0 -28 -8 -40 -18z"/>
<path d="M1422 168 c-2 -35 -9 -66 -15 -70 -7 -4 4 -7 23 -7 19 0 29 3 23 6
-15 6 -17 71 -3 107 8 22 7 26 -8 26 -14 0 -18 -11 -20 -62z"/>
</g>
</svg>
